<?xml version="1.0" encoding="utf-8"?>
<!-- Generator: Adobe Illustrator 13.0.0, SVG Export Plug-In . SVG Version: 6.00 Build 14948)  -->
<!DOCTYPE svg PUBLIC "-//W3C//DTD SVG 1.1//EN" "http://www.w3.org/Graphics/SVG/1.1/DTD/svg11.dtd">
<svg version="1.1" id="Layer_1" xmlns:x="&ns_extend;" xmlns:i="&ns_ai;" xmlns:graph="&ns_graphs;"
	 xmlns="http://www.w3.org/2000/svg" xmlns:xlink="http://www.w3.org/1999/xlink" x="0px" y="0px" width="2000px" height="820px"
	 viewBox="0 0 2000 820" enable-background="new 0 0 2000 820" xml:space="preserve">
	<g>
		<linearGradient id="mtn1_1_" gradientUnits="userSpaceOnUse" x1="1000.8611" y1="252.1469" x2="1000.8611" y2="146.3652">
			<stop  offset="0" style="stop-color:#909090"/>
			<stop  offset="0.6092" style="stop-color:#858585"/>
			<stop  offset="1" style="stop-color:#909090"/>
		</linearGradient>
		<path id="mtn1" opacity="0.9" fill="url(#mtn1_1_)" d="M1968.072,157.144c-21.683-3.769-34.115,9.058-54.706,12.56
			c-20.905,3.553-35.352,7.138-54.934,15.433c-21.374,9.056-43.643,1.315-64.789-4.98c-36.537-10.874-60.725,1.535-93.728,17.489
			c-24.745,11.963-48.733,0.57-71.687-10.217c-25.454-11.957-45.288-6.226-70.868-10.689c-9.712-1.694-14.757-10.326-23.463-13.344
			c-14.712-5.1-35.067,5.055-50.174,6.713c-15.905,1.745-30.788-0.131-45.911-6.108c-34.131-13.494-68.596-8.211-104.319-9.143
			c-17.432-0.456-31.395,9.785-48.46,10.42c-17.839,0.666-30.243-3.286-48.46,2.054c-31.619,9.27-64.988,32.321-98.101,23.978
			c-17.363-4.377-29.847-7.659-48.204-8.311c-16.084-0.572-30.1-2.948-44.734-7.297c-31.285-9.298-66.261,16.687-98.808,20.877
			c-37.061,4.773-62.919-26.347-98.775,1.303c-33.197,25.6-55.352,38.048-95.968,35.153c-22.09-1.576-42.053,5.831-63.365,6.255
			c-16.96,0.338-27.63-8.14-42.143-16.393c-17.155-9.757-29.589-9.064-48.252-8.625c-16.991,0.399-30.974-6.189-47.53-7.297
			c-18.501-1.242-32.15-0.33-49.386-8.572c-17.516-8.376-34.988-19.883-54.279-22.701c-40.174-5.868-66.969,50.944-105.103,37.555
			c-30.748-10.794-59.793-20.172-92.234-12.509c-17.994,4.251-31.582,16.833-49.181,24.236c-27.699,11.65-54.22,10.51-83.169,14.248
			C76.149,244.55,40.343,271.385,0,267.178v178.795l2001.722-56.8V159.371C1989.987,162.529,1982.156,159.593,1968.072,157.144z"/>
		<path id="mtn2" fill="#818181" d="M205.847,485.3c117.667-0.016,235.466,3.648,353.008-4.202
			c59.795-3.999,119.487-10.978,178.453-22.921c26.144-5.293,51.819-8.058,77.566-12.631c26.555-4.715,51.677-16.398,77.701-23.556
			c84.342-23.198,169.14-44.413,253.6-67.02c64.031-17.139,127.55-37.157,193.882-37.494c42.637-0.22,85.172,1.038,127.81,1.038
			c64.878,0,132.191,1.128,196.158-12.436c15.778-3.347,53.912-17.147,60.81-34.953c13.067-33.728-79.179-27.115-95.181-27.665
			c-55.594-1.91-111.14,2.081-166.648,2.085c-92.327,0.008-184.194,0.391-275.866,10.453c-52.1,5.721-106.538,19.358-158.581,15.84
			c-26.59-1.796-52.174,3.086-78.8,3.937c-27.146,0.867-54.179-2.508-81.256,0.232c-50.506,5.106-98.195,14.244-148.897,11.238
			c-55.486-3.29-106.933,20.523-162.365,20.844c-72.949,0.419-146.482-2.81-219.274-7.269
			c-66.824-4.092-134.121-6.405-201.031-6.283C95.21,294.611,44.606,288.308,0,295.938v192.383c2.521,0.045,4.99,0.085,7.382,0.13
			C73.584,489.709,139.664,485.308,205.847,485.3z"/>
		<linearGradient id="mtn3_1_" gradientUnits="userSpaceOnUse" x1="645.1609" y1="208.0423" x2="645.1609" y2="324.3225">
			<stop  offset="0" style="stop-color:#6e6e6e"/>
			<stop  offset="0.5561" style="stop-color:#797979"/>
			<stop  offset="1" style="stop-color:#7e7e7e"/>
		</linearGradient>
		<path id="mtn3" fill="url(#mtn3_1_)" d="M209.852,323.493c61.348-2.744,122.03-8.107,183.561-8.107
			c43.179,0,86.586,0.904,129.585-2.056c57.449-3.954,112.264-12.537,170.097-12.537c55.201,0,110.172-16.097,165.174-8.567
			c70.746,9.683,146.602,3.685,217.783,1.246c39.681-1.36,79.35-3.033,118.795-4.145c30.739-0.867,65.961,5.713,95.474-2.06
			c-8.099-4.117-15.99-3.922-24.814-4.194c-40.911-1.275-80.791-11.723-121.193-6.022c-34.481,4.866-74.162-0.977-108.31-9.614
			c-38.3-9.691-77.91-12.142-116.068-21.891c-37.525-9.585-74.577-12.411-110.38-28.927c-18.967-8.75-36.997-9.765-57.569-7.61
			c-22.188,2.325-50.382,0.012-70.825,9.667c-16.587,7.834-30.179,20.767-48.204,25.568c-23.401,6.23-47.073,4.67-71.078,5.42
			c-58.868,1.836-118.483,6.556-177.318,10.477c-47.379,3.16-98.113,13.161-146.079,4.98
			c-41.878-7.142-81.447-19.113-124.614-19.574C74.622,245.129,35.921,260.129,0,266.893v50.545
			c17.149,0.888,33.551,0.603,39.785,1.018C96.487,322.235,152.759,326.046,209.852,323.493z"/>
		<linearGradient id="mtn4_1_" gradientUnits="userSpaceOnUse" x1="394.0354" y1="274.3953" x2="394.0354" y2="360.7771">
			<stop  offset="0" style="stop-color:#707070"/>
			<stop  offset="0.2479" style="stop-color:#7a7a7a"/>
			<stop  offset="0.5723" style="stop-color:#818181"/>
			<stop  offset="1" style="stop-color:#818181"/>
		</linearGradient>
		<path id="mtn4" fill="url(#mtn4_1_)" d="M224.694,357.135c38.979-2.5,78.399-2.749,117.529-5.293
			c26.382-1.715,65.226-0.513,85.492-17.693c16.593-14.073,29.485-19.537,53.279-18.759c33.787,1.103,67.482,2.288,101.34,1.038
			c32.94-1.213,65.829,0.151,98.828-0.989c33.994-1.173,74.278,3.38,106.909-5.269c-15.968-7.549-41.444,0.371-59.13-0.806
			c-37.678-2.504-78.114-2.109-114.923-8.543c-35.853-6.262-73.433-1.201-109.962-5.008c-17.505-1.824-30.725,1.608-48.159,2.895
			c-22.972,1.694-45.52-6.922-67.356-13.291c-27.427-8.005-46.709-1.368-73.847,3.123c-22.927,3.795-44.085-4.487-67.847,0.525
			c-29.096,6.137-41.436,5.44-67.979-7.269c-18.456-8.836-33.699-8.176-53.375-6.047c-22.733,2.464-45.207-1.877-67.775,3.384
			c-16.284,3.799-39.575,20.03-57.718,20.62v55.993c6.584,0.778,12.76,1.022,16.701,1.331
			C85.193,362.449,156.159,361.533,224.694,357.135z"/>
		<linearGradient id="mtn5_1_" gradientUnits="userSpaceOnUse" x1="985.5204" y1="292.1682" x2="999.0176" y2="483.0139">
			<stop  offset="0" style="stop-color:#323232"/>
			<stop  offset="0.1129" style="stop-color:#484848"/>
			<stop  offset="0.5093" style="stop-color:#666666"/>
			<stop  offset="0.8183" style="stop-color:#707070"/>
			<stop  offset="1" style="stop-color:#8c8c8c"/>
		</linearGradient>
		<path id="mtn5" fill="url(#mtn5_1_)" d="M1977.433,202.752c-6.857,0.916-13.816,6.523-19.797,10.245
			c-5.974,3.718-12.033,8.979-18.597,10.652c-7.932,2.024-19.496,1.091-27.563,1.047c-16.141-0.09-31.546,1.27-47.735,2.085
			c-16.096,0.81-31.513,5.322-47.544,6.254c-3.645,0.212-8.649-1.169-12.114-0.025c-2.997,0.989-5.526,5.42-7.671,6.014
			c-7.281,2.02-12.326-5.086-20.266-5.99c-7.904-0.9-16.333,0-24.277,0c-9.292,0-12.232,3.339-19.545,5.237
			c-3.217,0.835-6.527-2.879-10.041,0.187c-1.69,1.474-0.22,7.688-2.708,9.479c-3.201,2.309-7.106-1.857-10.526-2.162
			c-4.341-0.391-6.637,1.531-10.204,2.134c-7.936,1.343-15.217-3.714-22.408-2.366c-8.946,1.674-5.603,13.034-13.026,14.643
			c-4.638,1.002-15.127-7.676-20.527-8.384c-10.143-1.328-12.961,5.42-20.547,7.346c-2.692,0.684-6.141-2.675-10.253-1.091
			c-2.927,1.128-2.264,5.151-5.521,6.275c-3.942,1.36-7.541-1.759-11.202-1.063c-3.644,0.692-4.964,2.96-8.392,4.422
			c-7.806,3.335-13.881,3.29-22.363,3.913c-10.901,0.798-9.064,7.68-17.66,11.515c-6.36,2.846-18.124-1.246-25.209-0.859
			c-8.344,0.456-16.557,2.349-25.209,1.853c-15.502-0.892-29.623-7.195-45.614-6.307c-7.81,0.432-15.461,0.395-23.296,0.053
			c-9.793-0.427-13.767,4.793-22.367,8.335c-8.677,3.575-18.662-0.452-27.042,3.16c-5.302,2.289-10.387,9.692-16.715,11.719
			c-29.835,9.577-65.013,23.87-96.033,14.256c-8.038-2.492-14.944-4.788-23.291-3.046c-9.463,1.975-14.818,3.53-24.208,0.236
			c-6.425-2.256-15.168-8.873-22.404-6.307c-3.485,1.234-5.004,6.446-8.579,7.896c-3.563,1.441-8.433-0.232-11.902-0.778
			c-4.394-0.684-6.857-2.997-11.185-0.835c-3.645,1.82-4.329,7.269-8.364,8.938c-7.199,2.973-16.703-3.815-24.252-0.831
			c-7.781,3.074-6.589,15.868-13.959,17.742c-4.638,1.181-7.317-4.162-11.206-5.257c-3.571-1.006-7.834,0.643-11.186,0.831
			c-3.428,0.191-9.105-1.03-12.322,0.183c-6.262,2.366-4.357,7.374-8.181,10.522c-5.68,4.679-12.562-0.761-18.841-1.877
			c-3.909-0.696-8.718-2.646-12.839-1.295c-6.336,2.076-3.282,2.292-6.528,6.25c-2.667,3.258-2.15,9.406-9.316,7.061
			c-4.826-1.576-3.148-5.689-6.478-8.103c-8.547-6.202-15.909-0.11-24.481,2.341c-4.878,1.393-9.386,1.136-13.535,4.174
			c-3.453,2.533-2.168,7.211-7.692,8.132c-6.774,1.132-13.462-8.295-21.666-8.388c-5.972-0.069-20.69,11.91-21.339,1.197
			c-6.045-1.006-11.027,3.331-17.568,2.964c-5.904-0.33-10.754-3.115-16.815-1.319c-4.852,1.434-5.676,5.42-12.073,5.518
			c-10.111,0.155-20.089-5.933-29.823-5.29c-5.263,0.35-8.414,6.368-13.044,7.138c-9.188,1.527-9.614-4.935-18.383,0.448
			c-3.732,2.292-4.387,7.077-9.595,5.807c-2.828-0.688-3.612-5.86-6.456-7.134c-3.259-1.462-8.628,0.615-12.161,0.045
			c-3.64-0.586-6.584-3.632-10.245-3.119c-7.737,1.083-10.036,9.642-17.707,10.416c-13.217,1.336-28.882-3.457-42.871,1.307
			c-10.931,3.722-16.115,0.741-27.278-1.091c-10.659-1.751-14.865,5.204-23.978,7.916c-7.836,2.333-17.206-0.733-25.161,0.998
			c-9.756,2.122-17.833,7.826-27.952,8.596c-9.015,0.688-15.673,1.6-24.234,5.216c-8.376,3.534-13.812,11.682-21.388,15.396
			c-4.06,1.991-8.122,0.049-12.161,1.49c-3.874,1.38-6.591,6.189-10.202,8.331c-6.788,4.023-14.81,3.066-22.414,5.762
			c-12.92,4.581-19.58,18.381-31.734,25.303c-28.123,16.019-61.165-10.375-84.542-26.341c-13.943-9.52-23.705-19.321-39.4-24.733
			c-15.243-5.253-29.392-7.334-43.049-17.717c-7.008-5.33-11.363-6.185-19.339-6.259c-7.244-0.065-12.813-3.176-20.502-4.17
			c-16.164-2.089-30.377,5.668-46.595,3.937c-7.423-0.79-14.712-3.029-20.5-7.875c-7.128-5.966-6.902-7.993-15.844-9.614
			c-4.174-0.757-6.33-0.688-10.015-2.345c-2.952-1.328-4.762-5.692-8.622-5.758c-8.01-0.138-6.975,9.455-17.707,7.114
			c-14.362-3.127-27.029-15.669-42.867-11.287c-8.681,2.402-9.355,9.097-18.452,3.909c-2.968-1.694-4.07-5.636-7.645-7.033
			c-3.18-1.242-7.804-0.114-11.18-0.236c-16.483-0.595-31.7-5.237-48.456-5.212c-14.946,0.02-28.935,1.783-43.745,2.007v482.932
			h2001.722V198.028c-4.479,1.478-8.563,4.833-13.152,5.611C1984.844,204.271,1981.367,202.226,1977.433,202.752z"/>
		<linearGradient id="mtn6_1_" gradientUnits="userSpaceOnUse" x1="1120.5088" y1="347.3367" x2="1120.5088" y2="541.2397">
			<stop  offset="0" style="stop-color:#838383"/>
			<stop  offset="0.0386" style="stop-color:#464646"/>
			<stop  offset="0.3257" style="stop-color:#5e5e5e"/>
			<stop  offset="0.591" style="stop-color:#6d6d6d"/>
			<stop  offset="0.8242" style="stop-color:#7a7a7a"/>
			<stop  offset="1" style="stop-color:#838383"/>
		</linearGradient>
		<path id="mtn6" fill="url(#mtn6_1_)" d="M1534.052,527.786c-2.195-1.979-5.42-0.884-7.7-3.608
			c-2.793-3.331-2.004-8.38-4.605-11.772c-3.722-4.87-8.742-5.448-13.971-7.276c-15.567-5.448-24.073-15.128-37.275-24.049
			c-10.086-6.821-22.558-5.106-32.706-11.446c-8.115-5.078-9.903-4.707-19.757-6.23c-13.718-2.122-7.855-13.511-17.619-20.107
			c-7.549-5.107-18.8-0.924-27.176-5.978c-3.685-2.223-7.557-5.42-10.864-8.05c-6.173-4.907-9.96-12.55-17.656-13.837
			c-5.42-0.904-8.49,2.415-14.048-0.993c-3.803-2.325-4.96-6.743-8.112-9.687c-5.875-5.497-15.009-13.852-22.62-15.38
			c-10.485-2.101-20.421,1.401-30.539-4.377c-5.868-3.347-5.652-6.49-12.33-4.247c-4.3,1.446-5.204,6.446-10.249,6.613
			c-4.894,0.163-7.757-6.031-12.118-6.32c-4.711-0.314-6.552,4.023-10.269,4.964c-4.939,1.242-5.452-1.234-9.044-1.873
			c-3.478-0.623-6.678,0.489-10.551,0.053c-6.14-0.692-14.96-9.516-18.637-2.109c-1.482,2.989,3.376,9.598,0.13,12.839
			c-3.783,3.783-9.24-0.704-11.516-3.437c-8.783-10.518-0.639-17.175-15.616-11.462c-6.661,2.541-13.568,4.137-21.414,5.004
			c-5.359,0.595-6.181-0.826-12.11,2.036c-4.792,2.317-5.461,3.954-11.414,4.422c-8.979,0.708-16.87,3.119-25.861,4.174
			c-3.99,0.468-8.38-0.969-12.118,0.761c-4.206,1.946-5.33,7.089-9.321,8.926c-7.957,3.665-14.842-3.62-23.34,1.527
			c-7.26,4.394-8.596,9.846-18.572,6.275c-9.818-3.514-13.641-6.865-24.318-1.877c-9.618,4.487-8.801,5.497-18.759-0.733
			c-8.392-5.253-13.354-7.171-23.157-7.582c-16.862-0.704-33.818-1.246-50.225-5.444c-7.877-2.016-15.443-5.941-22.628-7.895
			c-9.394-2.557-13.213,4.308-21.221,6.039c-4.19,0.904-8.663-2.431-13.096-1.087c-3.269,0.989-3.371,5.265-6.454,6.328
			c-3.868,1.331-8.305-1.157-12.159,0.766c-3.323,1.657-3.486,6.193-7.437,7.83c-9.056,3.754-9.149-8.014-19.566-5.493
			c-10.473,2.537-10.157,6.988-19.338-0.028c-7.329-5.603-11.301-10.551-20.734-8.05c-8.822,2.337-14.252,9.594-23.296,11.206
			c-6.816,1.213-14.915-0.468-21.388,2.06c-5.033,1.967-18.739,18.063-20.549,13.576l-5.591,149.066l848.032-6.255
			c1.193,0.456,1.274,1.193,2.626,0.908c0.562-11.397-1.954-22.49-7.309-32.205C1536.373,530.433,1537.232,530.653,1534.052,527.786
			z"/>
		<linearGradient id="mtn7_1_" gradientUnits="userSpaceOnUse" x1="1528.649" y1="277.8266" x2="1528.649" y2="682.0677">
			<stop  offset="0" style="stop-color:#333333"/>
			<stop  offset="0.0386" style="stop-color:#404040"/>
			<stop  offset="0.3257" style="stop-color:#555555"/>
			<stop  offset="0.591" style="stop-color:#6b6b6b"/>
			<stop  offset="0.8242" style="stop-color:#717171"/>
			<stop  offset="1" style="stop-color:#9a9a9a"/>
		</linearGradient>
		<path id="mtn7" fill="url(#mtn7_1_)" d="M1944.776,284.113c-15.384-1.755-25.442,3.738-40.052,8.103
			c-12.981,3.88-26.284,0.66-39.347,3.628c-12.269,2.789-22.371,10.367-35.202,10.212c-8.217-0.098-12.717-1.796-20.506,1.775
			c-15.807,7.236-29.501,7.5-45.825,12.509c-11.108,3.408-21.988,4.646-33.41,7.321c-14.321,3.355-19.456,9.801-30.662,18.76
			c-12.566,10.053-26.256,0.228-35.202,6.47c-6.776,4.736-4.87,8.966-15.16,8.36c-5.049-0.297-9.101-2.354-13.938-3.152
			c-11.882-1.963-23.067-0.924-34.501-3.884c-3.754-0.969-9.732-3.001-13.136,0.704c-2.407,2.619-0.542,9.125-2.92,12.611
			c-4.17,6.124-25.682,10.066-24.183-1.951c-6.922-0.395-12.912-2.227-19.432-3.078c-11.467-1.499-15.489,6.149-24.883,10.469
			c-7.782,3.583-14.231-0.126-21.687,1.576c-8.69,1.987-13.979,5.77-23.316,3.64c-6.739-1.539-11.173-5.383-18.633-4.422
			c-7.455,0.961-13.282,5.66-21.671,5.208c-14.956-0.806-30.43,0.187-45.435,4.406c-4.752,1.336-8.73,5.351-13.718,6.8
			c-5.212,1.515-9.936,0.509-15.164,1.303c-7.818,1.185-16.21,5.497-23.3,9.667c-9.255,5.444-13.124,17.061-23.572,19.541
			c-5.648,1.34-8.404,0.293-13.702,3.107c-4.715,2.504-7.899,6.955-13.071,8.592c-4.402,1.393-8.637,0.428-13.047,2.594
			c-4.088,2.008-7.142,6.564-11.165,8.934c-3.701,2.187-7.02,2.504-10.2,5.135c-3.987,3.307-5.908,7.35-10.274,9.985
			c-7.199,4.345-14.838,8.123-22.387,12.717c-11.312,6.89-26.777,15.188-36.342,24.786c-6.922,6.947-7.822,7.981-18.621,9.842
			c-12.928,2.231-12.611,7.244-21.227,14.675c-4.699,4.056-15.978,7.281-21.658,10.139c-7.057,3.551-18.185,2.276-24.297,8.258
			c-2.349,2.297-2.243,6.894-4.78,9.17c-2.92,2.614-7.016,1.885-10.298,3.396c-11.332,5.208-12.879,14.166-16.768,26.337
			c-2.137,6.682-7.647,13.234-6.295,20.567l945.936,83.145v-403.9c-3.754-0.22-7.537-0.427-11.454-0.305
			C1974.497,278.36,1960.922,285.958,1944.776,284.113z"/>
		<linearGradient id="mtn8_1_" gradientUnits="userSpaceOnUse" x1="846.3794" y1="373.0294" x2="891.2767" y2="712.256">
			<stop  offset="0" style="stop-color:#343434"/>
			<stop  offset="0.3896" style="stop-color:#565656"/>
			<stop  offset="1" style="stop-color:#838383"/>
		</linearGradient>
		<path id="mtn8" fill="url(#mtn8_1_)" d="M1779.871,822V582.244c-12.863-4.548-17.428-12.855-24.872-23.56
			c-7.5-10.791-18.067-11.402-28.793-16.43c-12.782-5.998-19.606-18.185-29.069-28.862c-7.187-8.12-12.521-8.311-22.823-5.448
			c-7.847,2.178-14.712,6.849-23.047,3.412c-5.957-2.459-10.204-6.763-16.06-8.771c-6.063-2.077-12.941-5.065-19.35-5.819
			c-8.332-0.982-11.686-0.383-18.637-5.448c-7.879-5.742-8.478-5.18-18.597-4.166c-8.335,0.835-14.252-1.006-20.771-6.776
			c-13.018-11.523-30.356-13.97-46.49-12.281c-7.138,0.749-12.997,2.41-19.04,6.927c-4.548,3.404-7.513,9.561-13.462,10.298
			c-3.531,0.436-8.331-3.701-12.11-4.186c-4.027-0.517-7.374,0.574-11.177,1.271c-5.505,1.006-39.095,2.011-42.104-4.219
			c-8.913-1.706-13.152,2.48-19.146,8.185c-7.957,7.578-8.852,5.636-17.917,5.131c-18.894-1.059-14.468,22.591-27.078,32.136
			c-6.596,4.997-15.107-0.452-21.398,4.353c-9.411,7.179-3.05,13.099-14.989,12.814c-3.005-0.069-5.672-1.759-9.268-1.295
			c-3.009,0.387-3.335,3.872-7.505,3.172c-4.703-0.786-12.359-13.564-12.228,1.877c-1.918,0.338-3.632,0.049-5.269-1.067
			c0.143-1.429-0.493-3.453-0.306-4.895c-7.545,3.689-7.431-4.271-12.859-5.395c-8.225-1.71-7.012,7.435-11.418,8.176
			c-7.61,1.283-3.832-10.062-10.062-10.31c-3.494-0.138-3.482,4.984-5.567,6.348c-1.014,0.668-6.25,2.728-6.592,3.078
			c-3.661,3.706-4.939,7.004-9.276,9.431c-2.448,1.372-5.631-0.423-8.409,1.311c-2.504,1.568-2.174,6.067-4.406,7.11
			c-7.623,3.559-5.297-3.364-9.736-5.082c-4.381-1.698-9.26,1.568-14.561,0.652c-1.006-5.391-5.066-5.819-9.48-5.082
			c-6.869,1.144-5.212,3.84-7.268,8.417c-1.967,4.373,4.952,5.151-2.985,7.272c-3.876,1.034-8.213-2.749-12.11-3.123
			c-10.156-0.982-18.071,8.449-27.962,7.293c-5.35-0.627-6.421-4.451-10.229-5.233c-7.513-1.547-13.181,5.192-20.221,5.163
			c-3.929-0.012-14.211-10.017-13.511-10.172c-6.462,1.425-10.966,0.672-14.773-4.324c-1.527-2.007-0.135-6.372-2.517-8.673
			c-2.101-2.032-5.908,0.036-8.453-0.949c-2.337-0.908-3.086-4.329-6.714-5.025c-3.441-0.663-5.949,1.645-8.637,1.853
			c-7.635,0.586-6.238-1.938-13.731-5.762c-11.202-5.721-6.071,6.548-14.854,3.673c-4.891-1.6-5.815-7.472-9.626-9.952
			c-2.84-1.849-6.11-0.578-9.062-2.301c-7.741-4.507-9.736-10.298-19.572-11.462c-11.139-1.315-10.288-3.93-18.639-10.164
			c-7.706-5.75-12.499,1.559-21.432,0.806c-9.229-0.778-11.866-7.232-19.57-11.288c-8.561-4.507-16.951-2.692-24.951-9.589
			c-3.815-3.29-2.92-6.776-8.596-7.289c-4.475-0.407-5.552,4.019-9.321,4.475c-4.479,0.546-5.346-2.598-9.32-2.39
			c-3.59,0.187-5.815,3.494-8.569,3.958c-9.276,1.555-14.498-4.333-21.298-9.98c-5.521-4.585-12.191-11.727-18.609-14.598
			c-7.281-3.254-14.183-0.468-21.412-5.448c-8.25-5.68-10.151-7.826-20.502-8.335c-9.119-0.448-13.973-4.031-21.461-9.125
			c-14.232-9.679-30.505-6.698-45.636-12.818c-28.315-11.454-63.077-10.713-93.19-4.117c-8.189,1.792-12.206,8.36-20.732,8.596
			c-3.985,0.11-7.714-3.229-11.906,0.558c-3.789,3.425-0.409,7.297-2.936,10.701c-5.304,7.154-14.958,1.519-20.569,0.183
			c-3.791-0.904-6.208-2.985-10.046-1.323c-3.394,1.466-3.929,6.91-7.36,8.775c-2.358,1.283-7.594,0.55-10.127,0.444
			c-8.229-0.346-14.091-2.117-20.447-8.392c-6.475-6.389-21.337-24.855-30.998-18.495c-7.452,4.903,0.998,7.537-2.06,13.572
			c-3.583,7.073-9.93,1.022-14.718,0.208c-11.196-1.906-12.804,7.334-25.163,2.923c-8.582-3.062-11.902-9.447-21.455-7.089
			c-4.41,1.087-5.589,3.665-11.208,3.93c-2.541,0.118-7.871-0.582-10.202-0.985c-8.864-1.527-14.915-3.115-23.342,1.775
			c-6.896,3.995-12.383,9.785-18.358,13.857c-8.368,5.705-12.758-1.059-21.669-0.045c-9.773,1.112-8.211,14.891-18.66,12.297
			c-3.38-0.839-4.964-5.412-7.619-7.065c-4.284-2.663-8.404-2.484-12.902-5.004c-3.473-1.951-6.301-8.221-10.174-9.125
			c-3.666-0.859-8.416,3.388-12.136,3.824c-6.226,0.725-13.999-1.759-20.59-1.458c-11.758,0.529-14.985-0.986-26.022-4.939
			c-6.381-2.285-12.957-5.599-19.57-7.297c-4.269-1.095-7.902,0.293-12.159-1.8c-2.887-1.417-3.96-5.424-7.409-6.332
			c-10.119-2.667-7.845,13.205-17.754,8.18c-3.626-1.841-1.692-7.505-5.522-9.508c-2.889-1.511-9.636,2.183-13.067,2.162
			c-6.407-0.041-13.325-3.53-18.688-6.202c-3.213-1.6-7.332-2.7-10.204-4.223c-0.957-0.509-6.433-4.96-6.716-5.025
			c-8.164-1.918-16.966,2.219-24.99,2.679c-7.272,0.415-14.51-4.133-23.135-0.599c-0.043,1.205-0.316,2.623-0.279,3.824
			c-4.613-1.547-14.343-6.156-18.503-6.112c-10.235,0.114-6.273,8.625-11.106,13.6c-7.109,7.317-7.779-3.029-14.962-4.218
			c-3.956-0.643-10.015,2.056-15.808,5.538V822H1779.871z"/>
		<linearGradient id="mtn9_1_" gradientUnits="userSpaceOnUse" x1="253.4037" y1="492.4794" x2="279.3419" y2="774.1049">
			<stop  offset="0" style="stop-color:#282828"/>
			<stop  offset="0.2712" style="stop-color:#282828"/>
			<stop  offset="0.6993" style="stop-color:#3b3b3b"/>
			<stop  offset="1" style="stop-color:#4e4e4e"/>
		</linearGradient>
		<path id="mtn9" fill="url(#mtn9_1_)" d="M482.899,775.356c1.434-6.071,2.847-13.291,4.565-20.054
			c5.531-21.785,49.867-12.998,66.959-13.568c-2.169-3.824-2.152-8.404-2.796-12.509c-0.723-4.622-0.824-4.801-4.658-7.558
			c-2.73-1.963-5.283-4.141-8.386-5.237c-2.905-1.026-6.843-1.034-9.343-2.765c-2.993-2.073-3.312-5.782-6.478-7.374
			c-1.643-0.826-2.659-0.114-3.819-2.036c-0.57-0.941-0.338-3.624-1.095-5.053c-1.138-2.15-3.268-4.418-4.658-6.434
			c-2.634-3.824-3.119-2.39-7.224-3.103c-6.729-1.165-6.515-10.432-12.998-11.572c-5.959-1.05-9.797,6.772-15.891,3.176
			c-3.023-1.783-3.231-5.794-6.526-7.081c-4.617-1.8-4.67,2.683-7.201,5.253c-4.441,4.508-11.507-2.541-16.744-2.203
			c-6.222,0.403-9.288-0.68-13.559-6.364c-2.472-3.29-5.257-7.623-9.877-6.12c-0.894,2.956,1.655,4.459,1.6,6.955
			c-3.351,0.517-10.06,0.439-12.947-1.597c-4.463-3.147,1.924-6.995-1.101-11.483c-5.403-8.01-18.814-14.068-27.604-12.615
			c-0.811,4.194-4.326,4.593-7.641,3.779c-2.697-0.664-1.61-1.971-4.642-1.14c-1.782,0.488-3.013,2.594-4.864,3.221
			c-1.527,0.521-5.043,0.753-6.381-0.525c-1.48-1.413-0.474-2.528-0.869-4.475c-0.633-3.127,0.379-3.477-2.795-4.19
			c-1.242-0.277-3.085-0.268-3.999,0.758c-2.174,2.439,0.766,8.409-2.451,10.575c-3.083,2.076-7.767-0.187-7.57-4.072
			c0.195-3.868,3.463-4.259,0.277-8.563c-2.042-2.757-5.774-3.237-7.965-5.921c-1.13-1.384-0.829-3.099-2.266-4.479
			c-1.584-1.523-2.783-1.568-4.705-2.056c-2.624-0.668-5.959-1.421-8.547-2.142c-4.125-1.148-15.852-4.593-18.938,0.004
			c-2.301,3.429,0.745,7.492-4.41,9.451c-5.668,2.158-3.174-3.473-5.776-5.831c-2.443-2.215-8.044,0.098-7.126,3.962
			c0.662,2.777,2.797,2.777,2.673,6.275c-0.049,1.405-0.57,2.699-1.114,3.986c-2.983,0.379-9.931-2.581-12.931-3.759
			c-5.55-2.178-3.774-5.37,0.025-7.781c4.561-2.891,5.43-6.185,0.023-8.917c-4.023-2.036-6.806-3.685-6.656-9.459
			c-3.009,0.041-4.457-2.435-7.12-3.563c-2.857-1.213-5.613-0.595-8.639,0.253c-4.084,1.14-10.762,5.582-15.115,2.394
			c-2.875-2.105-1.482-3.722-5.34-4.447c-2.934-0.554-5.81,0.086-8.337,1.042c-3.068,1.16-5.914,3.913-9.361,3.172
			c-2.775-0.595-4.668-3.392-7.256-4.5c-6.533-2.802-10.829,6.079-16.976,3.689c-5.481-2.13-11.487-9.007-15.142-13.804
			c-1.887-2.471-3.665-4.634-7.221-3.229c-3.97,1.564-1.564,5.334-4.617,7.651c-5.446,4.125-11.233-3.555-16.683-2.207
			c-0.299,6.629-2.022,6.112-7.594,6.096c-3.351-0.008-8.755,1.022-9.479-3.982c-2.899-1.34-5.002,2.142-5.593,4.842
			c-4.502,0.704-8.934,0.448-8.364-5.937c-5.984-1.185-8.909,9.158-15.726,5.966c-1.853-0.867-1.732-2.35-3.683-2.993
			c-1.38-0.456-3.237,0.22-4.68,0.016c-4.404-0.623-2.529-1.845-4.64-5.204c-3.506-5.579-11.819-2.651-16.795-2.093
			c-3.51,0.395-7.028,0.232-10.457,0.989c-3.327,0.737-6.56,2.378-9.948,2.35c1.926,2.032,2.734,5.489,0.598,7.867
			c-1.987,2.207-5.428,1.307-8.15,1.307c-3.377,0.004-6.961-0.521-10.043,1.275c-2.93,1.706-3.968,3.547-7.686,2.92
			c-6.639-1.12-9.707-9.508-15.823-10.445c-1.383-0.212-2.989-0.082-4.6,0.317c0,0,0,155.723,0,155.76
			c0-0.485,89.336-2.976,94.426-3.148c32.242-1.075,64.479-2.15,96.719-3.225c15.524-0.517,35.324-4.935,50.433-0.847
			c13.578,3.669,25.782,14.667,39.431,18.967c13.907,4.381,24.961,11.051,36.708,20.156c10.508,8.144,21.196,13.482,33.542,18.144
			c9.176,3.465,18.078,7.521,27.445,9.867h85.042c2.468-1.592,4.784-3.437,6.802-5.717
			C478.388,805.545,480.281,786.452,482.899,775.356z"/>
		<linearGradient id="mtn10_1_" gradientUnits="userSpaceOnUse" x1="1476.275" y1="495.8737" x2="1439.7289" y2="792.3026">
			<stop  offset="0" style="stop-color:#323232"/>
			<stop  offset="0.1747" style="stop-color:#3c3c3c"/>
			<stop  offset="0.4512" style="stop-color:#4f4f4f"/>
			<stop  offset="0.793" style="stop-color:#606060"/>
			<stop  offset="1" style="stop-color:#838383"/>
		</linearGradient>
		<path id="mtn10" fill="url(#mtn10_1_)" d="M1989.624,530.119c-4.039,0.387-6.69-0.908-9.992-2.341
			c-1.938-0.843-1.332-2.052-3.946-1.608c-1.767,0.297-2.928,2.418-4.626,2.932c-3.469,1.047-5.66-0.509-9.068-2.362
			c-5.355-2.908-11.116-5.334-13.356,3.201c-5.338,1.315-8.735-4.882-13.743-4.031c-2.476,0.415-3.917,2.736-6.495,3.196
			c-2.252,0.403-4.426-0.135-6.491-0.811c-3.64-1.193-20.722-20.559-19.619-7.712c-4.459,0.59-6.156-1.262-10.053-2.993
			c-3.718-1.653-6.263-0.354-10.221,0.049c-6.955,0.704-13.425-1.092-20.339-1.067c-7.37,0.025-12.599-4.927-19.72-4.194
			c-3.18,0.326-8.592,1.503-10.058,5.159c-1.213,3.034,0.411,9.028-0.098,12.399c-1.438,0.798-3.237,0.505-4.475,1.152
			c-2.121,1.108-3.335,3.429-5.546,4.321c-3.18,1.287-11.58,0.432-14.667-1.352c-1.38-0.794-3.445-2.207-4.166-3.881
			c-0.619-1.417-0.073-4.023-0.798-5.057c-1.625-2.337-7.855-4.89-10.265-6.202c-3.746-2.04-8.185-2.129-11.666-4.638
			c-1.246-0.904-1.67-2.687-3.172-3.673c-1.783-1.168-2.586-1.185-4.609-1.323c-5.155-0.359-10.327,2.162-15.6,1.087
			c-3.543-0.721-5.407-3.665-9.276-3.233c-4.833,0.537-9.87,1.222-15.062,1.095c-4.149-0.102-4.784-1.93-8.286-3.384
			c-2.911-1.21-9.349-2.073-11.678,0.464c-1.152,1.258-0.102,2.74-1.975,4.011c-1.156,0.786-5.037-0.081-6.324-0.285
			c-1.885-0.297-5.461-1.026-6.788-2.842c-1.625-2.203-0.566-3.628-2.679-5.57c-2.476-2.285-12.301-3.209-14.985-1.042
			c-2.451,1.971-0.879,6.25-2.842,8.441c-2.606,2.92-7.961,0.761-10.815,0.028c0.122-0.753-0.407-2.016-0.281-2.769
			c-4.003-0.648-9.903-3.938-10.078-8.523c-0.191-5.061,2.842-9.166-3.669-10.445c-6.165-1.209-11.755,0.713-17.66-2.846
			c-2.272-1.368-2.875-2.435-4.418-4.654c-1.979-2.858-0.839-2.451-4.561-2.895c-5.061-0.603-12.676,0-13.047,6.254
			c-0.297,5.041,2.765,9.695-3.901,11.511c-4.805,1.315-7.716-1.804-11.332-3.986c-4.231-2.557-8.225-2.456-12.652-1.092
			c-1.034,3.355,2.411,5.733,1.723,9.223c-0.786,4.023-3.42,2.675-6.507,3.107c-8.417,1.177-17.09,4.276-25.833,2.968
			c-1.694-5.082,6.267-3.962,4.369-9.068c-3.685-1.226-7.904,2.011-11.935,0.908c-3.787-1.034-4.084-4.691-6.653-7.346
			c-3.266-3.38-8.348-2.834-11.858-0.024c-2.94,2.353-6.059,6.967-9.842,7.525c-1.886,0.277-3.242-0.916-5.021-0.982
			c-2.378-0.085-4.658,1.12-7.22,0.798c-4.503-0.566-3.493-2.292-5.7-5.204c-1.405-1.857-4.642-3.351-7.464-2.162
			c-2.936,1.234-2.708,4.259-4.87,6.12c-5.737,4.935-6.287-6.36-12.057-0.859c-4.283,4.093-4.5,7.175-10.754,7.48
			c-0.615,5.424,1.198,11.825-4.756,14.223c-3.05,1.23-10.864-2.35-11.312,3.156c-7.231,1.132-11.035-3.144-17.456-4.821
			c-3.775-0.985-7.195-0.863-9.06,2.924c-1.063,2.166-2.248,6.853-2.199,9.223c-10.514,1.344-19.675-8.344-30.466-5.864
			c-4.271,0.982-6.369,6.613-10.18,7.11c-2.472,0.322-5.029-1.918-7.44-2.187c-2.891-0.326-5.737,0.586-8.339,1.853
			c-5.224,2.537-9.561,2.794-14.842,4.227c-6.348,1.722-6.714,9.019-12.029,11.483c-4.251,1.971-10.09-1.482-14.138,0.949
			c-3.616,2.174-5.704,10.432-5.497,14.74c-5.868,0.843-11.007-0.973-16.528-1.694c-3.233-0.419-6.93-0.566-10.225-0.228
			c-4.141,0.427-4.316,0.766-4.634,5.208c-0.297,4.056,0.387,5.847-3.461,7.606c-2.964,1.356-6.474,1.014-9.316-0.57
			c-2.345-1.303-3.127-2.313-5.754-2.862c-2.757-0.578-5.811,0.236-8.356,1.067c-3.889,1.266-3.457,0.53-2.993,5.184
			c0.407,4.158,0.464,6.389-3.506,7.317c-6.084,1.425-11.137-3.001-13.93,5.192c-1.295,3.787-1.095,5.762-5.542,5.265
			c-1.853-0.208-6.206-1.299-7.228-3.388c-3.592-7.325,9.239-7.244,7.089-14.227c-3.661-0.464-10.058-0.025-12.908,2.887
			c-3.347,3.416-1.157,6.951-6.218,9.744c-3.021,1.665-8.396,3.506-11.149,0.554c-1.201-1.291,0.261-3.099-1.995-4.068
			c-0.175-0.073-4.296,1.132-4.682,1.328c-3.926,1.966-5.306,7.476-9.247,8.995c-2.618,1.006-8.747,0.936-11.198-0.554
			c-1.592-0.969-1.877-2.862-3.64-3.486c-1.808-0.643-4.027,0.448-5.587,1.328c-3.937,2.232-5.297,5.44-10.2,3.229
			c-4.919-2.219-12.457-9.072-17.408-2.187c-2.496,3.473-0.663,7.912-4.821,9.199c-4.105,1.27-5.75-0.183-9.296,3.335
			c-3.469,3.445-5.167,5.859-10.204,6.022c-3.453,0.114-7.012-0.599-10.216,1.018c-6.039,3.05-10.2,15.384-18.771,9.712
			c-2.496-1.645-0.932-3.213-4.394-3.481c-0.985-0.078-4.72,1.169-5.574,1.828c-3.278,2.508-1.356,8.066-3.42,11.825
			c-2.448,4.467-6.499,3.999-10.473,4.117c-4.447,0.13-5.521,3.339-9.227,4.475c-3.603,1.104-7.696-1.665-11.177-3.143
			c-3.852-1.637-7.151-1.804-11.125-0.285c-4.243,1.617-9.406,4.825-9.312,10.42c0.073,4.768,2.024,9.003-4.597,9.402
			c-4.08,0.249-6.153-3.714-10.196-4.186c-1.092-0.126-4.776-0.627-5.629,0.155c-2.177,1.979-0.073,3.127,0.112,5
			c0.271,2.712,0.434,5.314-1.883,6.381c-2.612,1.209-3.064-1.621-4.607-1.979c-3.378-0.786-8.856,1.343-11.192,4.279
			c-2.166,2.72-1.238,1.283-0.89,4.899c0.147,1.527,0.448,4.842,0.025,6.275c-1.234,4.174-6.409,7.366-10.29,7.322
			c-4.047-0.049-6.305-2.769-10.155-3.148c-3.913-0.387-7.289,0.261-10.986,1.225c-0.759,4.1,2.119,8.168-0.076,11.569
			c-2.355,3.652-8.575,3.253-12.022,2.683c5.399-9.223-14.824-11.255-19.431-3.775c-0.715,1.161-0.513,4.455-1.042,6.018
			c-0.8,2.35-1.983,4.007-3.712,5.464c-3.63,3.054-6.8,2.395-11.01,3.034c-0.572,5.037,1.401,8.893-2.924,11.304
			c-3.781,2.109-9.661,0.216-6.252,7.069c1.348,2.704,3.327,3.209,1.889,6.54c-0.759,1.767-3.591,3.262-5.09,4.113
			c-4.623,2.631-10.457,1.462-10.015,8.344l-0.025,4.17v43.781l1121.157,29.404V534.44c-1.287-0.615-2.516-1.319-3.587-2.26
			C1994.331,528.849,1994.609,529.643,1989.624,530.119z"/>
		<linearGradient id="mtn11_1_" gradientUnits="userSpaceOnUse" x1="1002.2437" y1="836.2747" x2="999.8969" y2="540.5106">
			<stop  offset="0" style="stop-color:#4b4b4b"/>
			<stop  offset="0.5187" style="stop-color:#333333"/>
			<stop  offset="1" style="stop-color:#1f1f1f"/>
		</linearGradient>
		<path id="mtn11" fill="url(#mtn11_1_)" d="M1983.024,502.031c-3.803-3.005-4.459-3.282-9.528-3.176
			c-7.085,0.146-14.337,2.59-21.223-0.236c-6.409-2.63-13.201-6.784-20.295-4.772c-2.634,0.749-5.159,2.973-7.643,4.218
			c-3.005,1.515-6.083,1.967-9.133,3.103c-2.948,1.095-6.393,4.011-9.569,4.011c-2.822,0.004-4.789-2.614-7.387-3.221
			c-5.631-1.315-13.853,3.909-15.099,10.318c-3.856-1.84-9.549-0.814-12.924,2.162c-3.726,3.282-3.498,10.644-7.395,13.441
			c-3.958,2.846-11.153-0.729-15.017,2.451c-2.781,2.285-2.749,7.952-3.893,11.312c-3.656,10.705-15.396,3.331-22.831,8.519
			c-3.88,2.708-6.935,6.519-11.165,9.121c-3.763,2.321-7.492,4.454-11.409,6.539c-7.729,4.117-19.427-1.893-26.138,4.907
			c-5.766,5.847,1.991,21.056-8.343,24.855c-3.384,1.242-6.026-1.466-9.528-0.879c-6.918,1.152-5.286,5.448-4.223,11.495
			c2.24,12.729-4.178,24.639-15.665,28.023c-2.264,0.672-5.033,0.619-7.317,0.073c-3.237-0.773-3.73-3.001-6.263-4.459
			c-3.241-1.865-10.957-0.094-12.024,4.479c-1.466,6.242,5.293,9.683-0.904,14.638c-3.266,2.614-8.136,3.962-11.967,4.328
			c-1.12,7.904,2.085,17.412-7.594,18.605c-3.534,0.436-6.963-0.692-10.302,1.022c-3.237,1.666-4.389,4.724-8.331,5.232
			c-8.507,1.095-17.082-5.232-22.156,6.255c-1.751,3.954-1.727,4.638-5.811,5.212c-3.266,0.46-5.957,0.395-9.17,1.23
			c-0.48,7.427-5.094,12.513-12.053,13.417c-2.419,0.314-6.874,0.696-8.844-0.786c-2.345-1.763-2.272-5.351-5.338-6.865
			c-7.39-3.653-8.97,3.07-11.397,8.645c-4.581,10.526-25.747,14.854-33.146,6.279c-2.968-3.437-2.496-7.851,0.692-10.758
			c1.592-1.45,2.569-0.753,3.771-2.769c0.985-1.641,0.81-3.901,1.621-5.489c1.755-3.449,4.723-5.925,7.582-8.339
			c-0.244-2.533-6.372-3.559-8.282-4.959c-3.278-2.403-2.977-4.377-6.698-5.232c-4.492-1.034-8.572,0.582-12.875-2.292
			c-3.771-2.525-3.286-3.917-3.685-8.136c-0.676-7.154-9.337-13.625-15.929-10.212c-2.737,1.417-2.036,4.74-4.548,6.091
			c-1.47,0.794-5.762,0.02-7.358-0.208c0.888-9.728-10.436-8.584-16.19-8.205c-3.6,0.236-8.515,0.078-8.242,5.241
			c0.188,3.547,5.017,6.372,6.418,9.426c4.206,9.19-4.654,3.766-8.034,7.484c-4.719,5.2,6.283,9.406,5.281,14.199
			c-6.149,0.884-13.97-2.178-18.747,3.237c-2.321,2.639-2.203,5.11-5.338,6.56c-2.24,1.034-5.949,1.381-8.405,0.835
			c-6.633-1.462-6.116-6.743-8.16-11.743c-2.252-5.489-12.851-2.374-17.982-4.145c-3.396-1.173-3.86-4.235-6.462-6.129
			c-2.875-2.101-7.154-0.757-10.29,0.078c-2.365,0.631-5.676,1.922-8.176,0.835c-1.918-0.835-3.697-3.73-5.758-4.772
			c-2.394-1.21-4.605-1.075-6.36-3.563c-1.849-2.622-0.501-5.509-4.797-6.096c-1.93-0.265-8.128,0.566-9.382,2.341
			c-2.004,2.846,1.25,5.741,0.081,9.166c-3.355,9.846-18.409-1.898-16.63,13.556c0.59,5.147,1.059,9.166-4.87,10.473
			c-5.183,1.148-7.048-1.91-10.224-5.314c-2.309-2.476-5.286-6.368-8.421-7.293c-3.848-1.14-7.419,1.075-11.173-1.258
			c-7.859-4.89,2.504-19.13-11.157-21.675c-1.075-0.203-6.389-0.648-7.289,0.261c-1.979,1.979-0.366,2.573-0.146,4.947
			c0.305,3.225,0.688,11.625-1.637,13.91c-3.078,3.026-9.805-0.973-7.745,5.974c1.124,3.803,7.321,6.161,8.209,9.561
			c1.946,7.448-20.079,2.362-24.081,2.899c-5.379,0.721-22.095,13.613-24.342,2.317c-5.595-1.612-12.444-4.092-18.198-1.246
			c2.512,2.476,11.402,7.423,6.051,12.293c-1.413,1.287-6.975,1.128-8.918,1.25c-2.854,0.183-4.931,0.253-7.668,1.307
			c-3.123,1.205-5.953,2.297-9.365,1.877c-2.59-0.314-5.766-2.248-8.339-2.215c-2.545,0.033-4.927,1.841-7.455,2.187
			c-2.549,0.35-5.811,0.269-8.286-0.236c1.201-2.394,3.591-4.821,2.553-7.969c-3.754-0.623-8.405-0.102-12.021,0.831
			c-2.752,0.708-4.772,3.563-7.386,4.247c-4.125,1.079-6.849-1.474-10.274-3.408c-3.033-1.715-6.686-2.447-10-1.564
			c-0.766,5.582-1.169,8.498-5.86,11.894c-2.891,2.097-5.729,2.37-9.113,2.288c-3.449-0.085-10.644-4.353-13.384-2.732
			c-3.131,1.848-0.912,6.93-3.526,9.438c-3.685,3.53-7.631,0.9-11.235-0.069c-3.896-1.046-7.443,0.44-11.133,0.806
			c-5.175,0.513-7.704-1.572-9.162-6.487c-1.832-6.177-2.692-5.261-7.639-3.127c-3.257,1.405-10.282,3.205-11.996-1.857
			c-1.328-3.925,2.427-7,1.584-11.299c-2.325-1.03-3.441,1.23-4.752,2.915c-2.61,3.351-1.881,4.43-5.587,3.201
			c-2.386-0.79-2.871-3.209-6.108-1.902c-1.519,0.611-3.245,3.237-4.801,4.19c-3.111,1.914-13.694,2.545-10.106-5.232
			c1.649-3.587,9.826-4.776,8.055-10.477c-5.689-1.222-14.72,1.409-20.242,3.18c0.57,3.844,1.433,12.969-5.754,8.991
			c-2.81-1.552-7.562-9.923-7.55-13.214c-2.985-0.981-9.968,1.275-12.203,3.706c-2.708,2.936,0.314,12.745-4.109,13.022
			c3.877,5.595,5.75,16.097-0.301,19.835c-3.164,1.95-9.679,1.555-8.698,6.031c1.128,5.151,9.341,8.363,8.551,14.443
			c-2.085,0.509-3.946-1.877-6.401-1.934c-2.052-0.049-3.477,0.704-5.45,1.217c-0.454,3.978,0.183,8.189-0.283,12.167
			c-5.448,0.831-11.198-0.542-16.67-0.855c-5.672-0.326-7.024-1.454-5.318-7.118c0.48-1.588,1.893-0.949,1.464-3.103
			c-0.204-1.01-2.936-2.622-3.588-3.152c-2.28-1.869-4.638-3.473,0.031-5.493c2.005-0.871,8.803,0.542,8.494-4.149
			c-0.173-2.634-5.831-4.898-7.541-5.44c-6.666-2.122-12.933-0.981-19.802-1.779c-5.458-0.635-19.747-4.988-14.748-13.625
			c2.013-3.482,5.996-3.4,1.72-8.315c-1.629-1.869-6.869-5.163-8.991-2.134c-1.627,2.325,1.195,10.253-2.913,11.434
			c-2.046,0.586-4.5-3.583-6.548-4.113c-9.034-2.338-5.202,8.347-5.729,13.441c-2.024,0.273-4.21,0.289-6.224-0.02
			c-0.104-0.574-0.211-1.152-0.319-1.726c-3.96-0.737-8.922-0.643-10.834,4.223c-1.606,4.092,1.307,7.549-3.85,9.202
			c-3.333,1.071-16.752,1.258-19.024-1.828c-3.836-5.212,3.378-6.405,3.925-9.691c0.865-5.187-11.811-4.654-12.987-10.424
			c-1.25-6.128,4.599-4.17,6.839-8.058c6.389-11.092-15.349-11.304-20.632-10.546c-0.678,3.261,3.512,5.236,4.375,8.18
			c0.727,2.468-0.006,4.976-0.931,7.114c-2.673,0.44-6.818,0.912-8.974-0.839c-3.001-2.443-1.761-5.102-6.568-4.031
			c-0.271,2.292-0.006,4.687-0.279,6.979c-2.064,0.297-4.326-0.248-6.383,0.134c-3.388,0.631-2.651,1.938-4.89,3.991
			c-3.078,2.818-5.795,2.561-9.812,2.056c-3.206-0.403-11.511-2.166-14.294,1.482c-3.451,4.52,8.166,5.583,10.402,7.875
			c2.231,2.28,2.999,9.349,1.677,12.761c-2.73,7.053-14.272,5.901-19.421,5.004c-6.326-1.1-9.889-5.098-4.711-10.445
			c4.035-4.166,5.12-5.599,4.605-12.118c-2.578-0.521-8.217,1.315-10.239-0.896c-1.961-2.142,0.157-5.094-0.8-7.651
			c-1.95-5.228-11.719-4.768-15.766-3.938c-0.098,4.455,4.778,9.471-1.987,11.304c-4.367,1.185-6.423-2.977-10.249-3.139
			c-4.919-0.212-7.83,5.07-13.091,1.869c-1.505-0.916-1.102-2.219-2.936-2.993c-0.798-0.338-2.598,0.094-3.514,0.073
			c-2.834-0.057-4.677,0.55-7.344,1.225c-0.662,5.396-0.035,7.415-5.73,8.181c-4.452,0.598-7.124-2.126-10.984-3.844
			c-4.504-2.004-7.03-0.505-11.308,1.352c-7.333,3.18-11.723,1.1-18.271-2.891c-2.791-1.702-8.067-2.785-7.963-6.723
			c0.065-2.415,1.635-3.372,3.278-4.406c1.407-0.892,3.785-0.757,4.955-2.089c0.296-0.338,2.551-3.966,1.008-4.198
			c-3.025-0.456-8.679,1.303-7.146-4.381c0.362-1.348,2.195-2.276,2.675-4.121c0.358-1.38-0.043-3.669-0.186-5.049
			c-7.118-1.592-14.651,10.534-21.058,4.788c-1.979-1.779-1.765-6.543-3.213-7.863c-2.938-2.675-4.55,3.897-7.28,5.074
			c-1.501,0.648-5.278,0.11-6.583-0.811c-1.287-0.904-1.232-2.875-2.476-3.738c-2.268-1.576-7.397-0.9-9.591,1.038
			c-5.742,5.074,9.101,17.302-1.725,17.143c-1.564,6.584,14.164,4.54,16.738,7.904c3.341,4.365-4.182,9.329-7.539,9.659
			c-5.963,0.59-9.529-1.653-13.724-5.232c-4.667-3.982-12.004-5.24-17.882-3.909c3.884,3.543,12.853,4.247,13.039,12.273
			c0.214,9.252-7.468,5.346-12.183,3.127c-2.979-1.401-5.691-5.012-8.388-6.096c-3.698-1.486-4.015,1.898-6.318,4.06
			c-2.915,2.732-11.481,3.591-11.548-3.017c-2.162-0.106-5.758-0.004-7.108-2.456c-1.826-3.314,0.881-5.701,1.93-7.867
			c1.527-3.156,1.938-3.665-0.977-6.511c-1.979-1.93-3.758-2.936-6.78-2.138c-2.84,0.745-4.184,2.415-7.616,2.129
			c-3.887-0.321-6.332-0.68-8.922-4.223c-1.857-2.541-5.513-10.864-9.371-9.162c0.1,6.596-6.273,9.182-11.316,6.951
			c-5.464-2.415-2.315-10.767-0.234-14.639c1.437-2.679,3.041-3.95,3.07-7.126c0.012-1.177-1.499-5.786-2.586-6.499
			c-2.496-1.645-2.773,1.157-4.681,2.672c-2.026,1.617-2.92,2.296-5.685,1.641c-0.427-3.31,1.055-7.163-2.94-6.947
			c-2.461,0.134-3.848,3.897-5.774,4.813c-7.37,3.51-6.56-6.137-10.95-8.18c-2.687-1.254-4.227,0.444-6.802-1.755
			c-2.765-2.358-2.417-4.218-6.314-2.622c-5.348,2.195-4.009,10.962-10.227,10.701c-6.847-0.285-6.717-8.18-7.668-13.572
			c-0.599-3.396-1.826-6.857-5.377-6.299c-1.781,0.277-4.096,2.276-4.709,4.166c-2.335,7.199,3.634,13.344,4.777,19.566
			c0.46,2.512,0.499,8.518-1.24,10.501c-1.718,1.955-3.87,1.063-6.143,1.413c-1.853,6.006,6.475,10.778,5.308,17.403
			c-4.738,0.273-10.066,2.366-6.611,7.712c1.238,1.91,4.911,3.018,5.626,5.163c0.78,2.338-0.792,4.907-1.462,7.089
			c-1.061,3.441-0.816,4.817-4.889,4.194c-2.076-0.318-3.276-1.344-4.872-2.867c-3.962-3.771-5.125-5.115-10.811-4.296
			c-0.804,4.524,1.832,11.756,4.528,14.435c2.307,2.292,4.803,2.215,5.629,6.254c0.346,1.698,0.316,5.676-0.234,7.293
			c-2.35,6.89-10.076,1.275-13.837-1.042c-5.204-3.204-6.751-5.037-12.022-1.82c-3.223,1.971-12.747,6.059-15.021,0.831
			c-3.196-7.341,9.288-7.802,11.359-11.491c3.897-6.943-7.812-3.001-10.361-3.156c-6.586-0.395-5.002-5.057-1.936-9.113
			c-3.003-2.749-8.044,0.769-10.036-3.372c-2.093-4.353,1.509-5.627-3.64-8.099c-2.329-1.116-6.491-2.789-8.429-0.049
			c-1.586,2.235,1.165,5.782-1.311,7.916c-2.451,2.117-6.012-0.985-7.519-2.862c-1.374-1.702-0.584-2.753-2.524-4.243
			c-1.529-1.177-2.02-0.79-3.744-1.018c-10.974-1.446-1.175,8.262-1.985,13.388c-3.508,0.501-7.423-0.521-10.849,0.395
			c-4.391,1.173-7.79,3.718-13.046,2.944c-5.147-0.753-8.009-2.37-7.462-8.392c0.334-3.661,1.208-7.533-3.956-7.346
			c-1.9,0.069-2.759,1.694-4.64,2.182c-1.792,0.468-3.465-0.383-4.913-0.806c-1.725-0.505-2.128-1.226-4.404-1.095
			c-1.482,0.086-2.897,0.989-4.613,0.863c-1.393-0.102-5.461-0.977-6.43-2.35c-0.998-1.417,0.346-3.681-0.8-5.31
			c-1.946-2.769-6.218-1.763-8.478-0.554c0.153,4.915-13.537,3.795-16.037,1.641c-1.82-1.568-3.044-5.175-1.688-8.123
			c1.148-2.492,4.821-2.183,5.355-4.931c-6.199-2.769-0.753-6.409-3.84-9.402c-2.771-2.684-8.946,2.675-8.337-5.265
			c-4.06-1.152-13.303,4.373-15.75-1.152c-1.543-3.494,1.48-4.878-2.726-6.328c-2.624-0.9-6.497,0.509-8.476,2.37
			c-2.47,2.317-2.832,5.709-6.505,6.067c-1.537,0.151-4.321-1.299-6.477-1.116c-5.67,0.484-8.038,4.198-5.428,10.241
			c4.481,0.737,15.471-1.568,15.718,6.413c0.261,8.339-12.484,6.898-16.815,5.493c-8.093-2.626-1.348-8.803-5.778-13.572
			c-2.197-2.365-5.817-0.244-8.195-1.23c-3.76-1.552-2.445-3.29-2.938-7.183c-2.231-0.77-5.377,1.071-8.109,0.725
			c0.124-0.778-0.405-2.04-0.277-2.818c-4.587-0.648-8.325-0.635-10.139,3.99c-1.203,3.071-0.623,4.948-4.632,6.071
			c-1.967,0.55-4.412,0.314-6.387,0.049c-0.271-2.292-0.004-4.687-0.279-6.979c-1.806-0.261-6.647,0.884-8.058-0.371
			c-2.398-2.125-0.02-5.371-1.311-7.891c-4.182-8.184-8.502,2.561-11.926,3.018c-3.211,0.423-4.565-3.209-8.431-1.454
			c-1.552,0.701-4.092,2.504-4.656,4.406c-1.684,5.66,4.98,6.727,7.684,9.15c2.61,2.338,4.575,4.499,3.561,8.645
			c-0.816,3.335-3.995,3.824-3.085,7.505c0.725,2.936,5.483,4.76,1.248,7.113c-1.541,0.855-4.678,0.525-6.548,1.254
			c-2.663,1.034-5.601,2.744-8.409,2.891c-1.808,0.093-5.973-0.269-7.472-1.279c-1.684-1.136-10.534-10.644-11.324-2.056
			c-5.81,1.559-8.388-3.812-12.867-6.304c-3.268-1.82-4.697-2.154-1.93-5.236c2.631-2.936,4.581-1.584,3.634-6.882
			c-4.862-0.701-7.287,0.692-11.279,2.708c-4.115,2.073-8.435,1.706-12.719-0.989c2.195-5.521-0.09-8.637-4.636-10.449
			c1.061-2.158,4.573-3.856,3.445-6.885c-1.983-1.091-4.487-0.876-6.287-2.5c0.513-1.429,2.647-2.292,2.814-3.938
			c0.136-1.303-2.443-3.681-2.767-5c5.088-4.418,0.265-13.763-3.703-8.335c-2.166,2.96,1.175,4.312-2.895,6.067
			c-2.162,0.932-5.477-0.171-7.356-1.275c0.285-2.272,2.054-5.811-0.33-7.92c-2.006-1.775-6.979,0.476-9.009,1.038
			c-0.017,2.915,3.882,4.532,2.528,8.185c-1.348,3.653-7.24,3.233-9.96,2.92c-1.02-3.722,2.368-3.987-1.063-6.906
			c-1.867-1.592-6.875-2.268-9.192-2.476c-0.124-2.647,0.173-5.346-2.189-6.935c-1.531-1.026-6.757-0.289-8.013,1.071
			c-1.82,1.967-0.794,4.699-2.056,7.057c-1.171,2.187-3.005,2.647-4.679,4.146c-3.504,3.139-7.106,8.258-12.816,7.093
			c-4.699-0.961-13.997-1.417-13.254-0.81L0,689.8v130.331h2001.722V503.925c-2.598,0.57-5.204,1.177-7.721,1.23
			C1990.304,505.232,1986.078,504.442,1983.024,502.031z"/>
	</g>
</svg>
