<?xml version="1.0" encoding="utf-8"?>
<!-- Generator: Adobe Illustrator 13.0.0, SVG Export Plug-In . SVG Version: 6.00 Build 14948)  -->
<!DOCTYPE svg PUBLIC "-//W3C//DTD SVG 1.1//EN" "http://www.w3.org/Graphics/SVG/1.1/DTD/svg11.dtd">
<svg version="1.1" id="mountain_11" xmlns="http://www.w3.org/2000/svg" xmlns:xlink="http://www.w3.org/1999/xlink" x="0px" y="0px" width="2000px" height="820px"
	 viewBox="0 0 2000 820" enable-background="new 0 0 2000 820" xml:space="preserve">
	<g>
    <linearGradient id="mtn11_1_" gradientUnits="userSpaceOnUse" x1="1002.2437" y1="836.2747" x2="999.8969" y2="540.5106">
			<stop  offset="0" style="stop-color:#4b4b4b"/>
			<stop  offset="0.5187" style="stop-color:#333333"/>
			<stop  offset="1" style="stop-color:#1f1f1f"/>
		</linearGradient>
		<path id="mtn11" fill="url(#mtn11_1_)" d="M1983.024,502.031c-3.803-3.005-4.459-3.282-9.528-3.176
			c-7.085,0.146-14.337,2.59-21.223-0.236c-6.409-2.63-13.201-6.784-20.295-4.772c-2.634,0.749-5.159,2.973-7.643,4.218
			c-3.005,1.515-6.083,1.967-9.133,3.103c-2.948,1.095-6.393,4.011-9.569,4.011c-2.822,0.004-4.789-2.614-7.387-3.221
			c-5.631-1.315-13.853,3.909-15.099,10.318c-3.856-1.84-9.549-0.814-12.924,2.162c-3.726,3.282-3.498,10.644-7.395,13.441
			c-3.958,2.846-11.153-0.729-15.017,2.451c-2.781,2.285-2.749,7.952-3.893,11.312c-3.656,10.705-15.396,3.331-22.831,8.519
			c-3.88,2.708-6.935,6.519-11.165,9.121c-3.763,2.321-7.492,4.454-11.409,6.539c-7.729,4.117-19.427-1.893-26.138,4.907
			c-5.766,5.847,1.991,21.056-8.343,24.855c-3.384,1.242-6.026-1.466-9.528-0.879c-6.918,1.152-5.286,5.448-4.223,11.495
			c2.24,12.729-4.178,24.639-15.665,28.023c-2.264,0.672-5.033,0.619-7.317,0.073c-3.237-0.773-3.73-3.001-6.263-4.459
			c-3.241-1.865-10.957-0.094-12.024,4.479c-1.466,6.242,5.293,9.683-0.904,14.638c-3.266,2.614-8.136,3.962-11.967,4.328
			c-1.12,7.904,2.085,17.412-7.594,18.605c-3.534,0.436-6.963-0.692-10.302,1.022c-3.237,1.666-4.389,4.724-8.331,5.232
			c-8.507,1.095-17.082-5.232-22.156,6.255c-1.751,3.954-1.727,4.638-5.811,5.212c-3.266,0.46-5.957,0.395-9.17,1.23
			c-0.48,7.427-5.094,12.513-12.053,13.417c-2.419,0.314-6.874,0.696-8.844-0.786c-2.345-1.763-2.272-5.351-5.338-6.865
			c-7.39-3.653-8.97,3.07-11.397,8.645c-4.581,10.526-25.747,14.854-33.146,6.279c-2.968-3.437-2.496-7.851,0.692-10.758
			c1.592-1.45,2.569-0.753,3.771-2.769c0.985-1.641,0.81-3.901,1.621-5.489c1.755-3.449,4.723-5.925,7.582-8.339
			c-0.244-2.533-6.372-3.559-8.282-4.959c-3.278-2.403-2.977-4.377-6.698-5.232c-4.492-1.034-8.572,0.582-12.875-2.292
			c-3.771-2.525-3.286-3.917-3.685-8.136c-0.676-7.154-9.337-13.625-15.929-10.212c-2.737,1.417-2.036,4.74-4.548,6.091
			c-1.47,0.794-5.762,0.02-7.358-0.208c0.888-9.728-10.436-8.584-16.19-8.205c-3.6,0.236-8.515,0.078-8.242,5.241
			c0.188,3.547,5.017,6.372,6.418,9.426c4.206,9.19-4.654,3.766-8.034,7.484c-4.719,5.2,6.283,9.406,5.281,14.199
			c-6.149,0.884-13.97-2.178-18.747,3.237c-2.321,2.639-2.203,5.11-5.338,6.56c-2.24,1.034-5.949,1.381-8.405,0.835
			c-6.633-1.462-6.116-6.743-8.16-11.743c-2.252-5.489-12.851-2.374-17.982-4.145c-3.396-1.173-3.86-4.235-6.462-6.129
			c-2.875-2.101-7.154-0.757-10.29,0.078c-2.365,0.631-5.676,1.922-8.176,0.835c-1.918-0.835-3.697-3.73-5.758-4.772
			c-2.394-1.21-4.605-1.075-6.36-3.563c-1.849-2.622-0.501-5.509-4.797-6.096c-1.93-0.265-8.128,0.566-9.382,2.341
			c-2.004,2.846,1.25,5.741,0.081,9.166c-3.355,9.846-18.409-1.898-16.63,13.556c0.59,5.147,1.059,9.166-4.87,10.473
			c-5.183,1.148-7.048-1.91-10.224-5.314c-2.309-2.476-5.286-6.368-8.421-7.293c-3.848-1.14-7.419,1.075-11.173-1.258
			c-7.859-4.89,2.504-19.13-11.157-21.675c-1.075-0.203-6.389-0.648-7.289,0.261c-1.979,1.979-0.366,2.573-0.146,4.947
			c0.305,3.225,0.688,11.625-1.637,13.91c-3.078,3.026-9.805-0.973-7.745,5.974c1.124,3.803,7.321,6.161,8.209,9.561
			c1.946,7.448-20.079,2.362-24.081,2.899c-5.379,0.721-22.095,13.613-24.342,2.317c-5.595-1.612-12.444-4.092-18.198-1.246
			c2.512,2.476,11.402,7.423,6.051,12.293c-1.413,1.287-6.975,1.128-8.918,1.25c-2.854,0.183-4.931,0.253-7.668,1.307
			c-3.123,1.205-5.953,2.297-9.365,1.877c-2.59-0.314-5.766-2.248-8.339-2.215c-2.545,0.033-4.927,1.841-7.455,2.187
			c-2.549,0.35-5.811,0.269-8.286-0.236c1.201-2.394,3.591-4.821,2.553-7.969c-3.754-0.623-8.405-0.102-12.021,0.831
			c-2.752,0.708-4.772,3.563-7.386,4.247c-4.125,1.079-6.849-1.474-10.274-3.408c-3.033-1.715-6.686-2.447-10-1.564
			c-0.766,5.582-1.169,8.498-5.86,11.894c-2.891,2.097-5.729,2.37-9.113,2.288c-3.449-0.085-10.644-4.353-13.384-2.732
			c-3.131,1.848-0.912,6.93-3.526,9.438c-3.685,3.53-7.631,0.9-11.235-0.069c-3.896-1.046-7.443,0.44-11.133,0.806
			c-5.175,0.513-7.704-1.572-9.162-6.487c-1.832-6.177-2.692-5.261-7.639-3.127c-3.257,1.405-10.282,3.205-11.996-1.857
			c-1.328-3.925,2.427-7,1.584-11.299c-2.325-1.03-3.441,1.23-4.752,2.915c-2.61,3.351-1.881,4.43-5.587,3.201
			c-2.386-0.79-2.871-3.209-6.108-1.902c-1.519,0.611-3.245,3.237-4.801,4.19c-3.111,1.914-13.694,2.545-10.106-5.232
			c1.649-3.587,9.826-4.776,8.055-10.477c-5.689-1.222-14.72,1.409-20.242,3.18c0.57,3.844,1.433,12.969-5.754,8.991
			c-2.81-1.552-7.562-9.923-7.55-13.214c-2.985-0.981-9.968,1.275-12.203,3.706c-2.708,2.936,0.314,12.745-4.109,13.022
			c3.877,5.595,5.75,16.097-0.301,19.835c-3.164,1.95-9.679,1.555-8.698,6.031c1.128,5.151,9.341,8.363,8.551,14.443
			c-2.085,0.509-3.946-1.877-6.401-1.934c-2.052-0.049-3.477,0.704-5.45,1.217c-0.454,3.978,0.183,8.189-0.283,12.167
			c-5.448,0.831-11.198-0.542-16.67-0.855c-5.672-0.326-7.024-1.454-5.318-7.118c0.48-1.588,1.893-0.949,1.464-3.103
			c-0.204-1.01-2.936-2.622-3.588-3.152c-2.28-1.869-4.638-3.473,0.031-5.493c2.005-0.871,8.803,0.542,8.494-4.149
			c-0.173-2.634-5.831-4.898-7.541-5.44c-6.666-2.122-12.933-0.981-19.802-1.779c-5.458-0.635-19.747-4.988-14.748-13.625
			c2.013-3.482,5.996-3.4,1.72-8.315c-1.629-1.869-6.869-5.163-8.991-2.134c-1.627,2.325,1.195,10.253-2.913,11.434
			c-2.046,0.586-4.5-3.583-6.548-4.113c-9.034-2.338-5.202,8.347-5.729,13.441c-2.024,0.273-4.21,0.289-6.224-0.02
			c-0.104-0.574-0.211-1.152-0.319-1.726c-3.96-0.737-8.922-0.643-10.834,4.223c-1.606,4.092,1.307,7.549-3.85,9.202
			c-3.333,1.071-16.752,1.258-19.024-1.828c-3.836-5.212,3.378-6.405,3.925-9.691c0.865-5.187-11.811-4.654-12.987-10.424
			c-1.25-6.128,4.599-4.17,6.839-8.058c6.389-11.092-15.349-11.304-20.632-10.546c-0.678,3.261,3.512,5.236,4.375,8.18
			c0.727,2.468-0.006,4.976-0.931,7.114c-2.673,0.44-6.818,0.912-8.974-0.839c-3.001-2.443-1.761-5.102-6.568-4.031
			c-0.271,2.292-0.006,4.687-0.279,6.979c-2.064,0.297-4.326-0.248-6.383,0.134c-3.388,0.631-2.651,1.938-4.89,3.991
			c-3.078,2.818-5.795,2.561-9.812,2.056c-3.206-0.403-11.511-2.166-14.294,1.482c-3.451,4.52,8.166,5.583,10.402,7.875
			c2.231,2.28,2.999,9.349,1.677,12.761c-2.73,7.053-14.272,5.901-19.421,5.004c-6.326-1.1-9.889-5.098-4.711-10.445
			c4.035-4.166,5.12-5.599,4.605-12.118c-2.578-0.521-8.217,1.315-10.239-0.896c-1.961-2.142,0.157-5.094-0.8-7.651
			c-1.95-5.228-11.719-4.768-15.766-3.938c-0.098,4.455,4.778,9.471-1.987,11.304c-4.367,1.185-6.423-2.977-10.249-3.139
			c-4.919-0.212-7.83,5.07-13.091,1.869c-1.505-0.916-1.102-2.219-2.936-2.993c-0.798-0.338-2.598,0.094-3.514,0.073
			c-2.834-0.057-4.677,0.55-7.344,1.225c-0.662,5.396-0.035,7.415-5.73,8.181c-4.452,0.598-7.124-2.126-10.984-3.844
			c-4.504-2.004-7.03-0.505-11.308,1.352c-7.333,3.18-11.723,1.1-18.271-2.891c-2.791-1.702-8.067-2.785-7.963-6.723
			c0.065-2.415,1.635-3.372,3.278-4.406c1.407-0.892,3.785-0.757,4.955-2.089c0.296-0.338,2.551-3.966,1.008-4.198
			c-3.025-0.456-8.679,1.303-7.146-4.381c0.362-1.348,2.195-2.276,2.675-4.121c0.358-1.38-0.043-3.669-0.186-5.049
			c-7.118-1.592-14.651,10.534-21.058,4.788c-1.979-1.779-1.765-6.543-3.213-7.863c-2.938-2.675-4.55,3.897-7.28,5.074
			c-1.501,0.648-5.278,0.11-6.583-0.811c-1.287-0.904-1.232-2.875-2.476-3.738c-2.268-1.576-7.397-0.9-9.591,1.038
			c-5.742,5.074,9.101,17.302-1.725,17.143c-1.564,6.584,14.164,4.54,16.738,7.904c3.341,4.365-4.182,9.329-7.539,9.659
			c-5.963,0.59-9.529-1.653-13.724-5.232c-4.667-3.982-12.004-5.24-17.882-3.909c3.884,3.543,12.853,4.247,13.039,12.273
			c0.214,9.252-7.468,5.346-12.183,3.127c-2.979-1.401-5.691-5.012-8.388-6.096c-3.698-1.486-4.015,1.898-6.318,4.06
			c-2.915,2.732-11.481,3.591-11.548-3.017c-2.162-0.106-5.758-0.004-7.108-2.456c-1.826-3.314,0.881-5.701,1.93-7.867
			c1.527-3.156,1.938-3.665-0.977-6.511c-1.979-1.93-3.758-2.936-6.78-2.138c-2.84,0.745-4.184,2.415-7.616,2.129
			c-3.887-0.321-6.332-0.68-8.922-4.223c-1.857-2.541-5.513-10.864-9.371-9.162c0.1,6.596-6.273,9.182-11.316,6.951
			c-5.464-2.415-2.315-10.767-0.234-14.639c1.437-2.679,3.041-3.95,3.07-7.126c0.012-1.177-1.499-5.786-2.586-6.499
			c-2.496-1.645-2.773,1.157-4.681,2.672c-2.026,1.617-2.92,2.296-5.685,1.641c-0.427-3.31,1.055-7.163-2.94-6.947
			c-2.461,0.134-3.848,3.897-5.774,4.813c-7.37,3.51-6.56-6.137-10.95-8.18c-2.687-1.254-4.227,0.444-6.802-1.755
			c-2.765-2.358-2.417-4.218-6.314-2.622c-5.348,2.195-4.009,10.962-10.227,10.701c-6.847-0.285-6.717-8.18-7.668-13.572
			c-0.599-3.396-1.826-6.857-5.377-6.299c-1.781,0.277-4.096,2.276-4.709,4.166c-2.335,7.199,3.634,13.344,4.777,19.566
			c0.46,2.512,0.499,8.518-1.24,10.501c-1.718,1.955-3.87,1.063-6.143,1.413c-1.853,6.006,6.475,10.778,5.308,17.403
			c-4.738,0.273-10.066,2.366-6.611,7.712c1.238,1.91,4.911,3.018,5.626,5.163c0.78,2.338-0.792,4.907-1.462,7.089
			c-1.061,3.441-0.816,4.817-4.889,4.194c-2.076-0.318-3.276-1.344-4.872-2.867c-3.962-3.771-5.125-5.115-10.811-4.296
			c-0.804,4.524,1.832,11.756,4.528,14.435c2.307,2.292,4.803,2.215,5.629,6.254c0.346,1.698,0.316,5.676-0.234,7.293
			c-2.35,6.89-10.076,1.275-13.837-1.042c-5.204-3.204-6.751-5.037-12.022-1.82c-3.223,1.971-12.747,6.059-15.021,0.831
			c-3.196-7.341,9.288-7.802,11.359-11.491c3.897-6.943-7.812-3.001-10.361-3.156c-6.586-0.395-5.002-5.057-1.936-9.113
			c-3.003-2.749-8.044,0.769-10.036-3.372c-2.093-4.353,1.509-5.627-3.64-8.099c-2.329-1.116-6.491-2.789-8.429-0.049
			c-1.586,2.235,1.165,5.782-1.311,7.916c-2.451,2.117-6.012-0.985-7.519-2.862c-1.374-1.702-0.584-2.753-2.524-4.243
			c-1.529-1.177-2.02-0.79-3.744-1.018c-10.974-1.446-1.175,8.262-1.985,13.388c-3.508,0.501-7.423-0.521-10.849,0.395
			c-4.391,1.173-7.79,3.718-13.046,2.944c-5.147-0.753-8.009-2.37-7.462-8.392c0.334-3.661,1.208-7.533-3.956-7.346
			c-1.9,0.069-2.759,1.694-4.64,2.182c-1.792,0.468-3.465-0.383-4.913-0.806c-1.725-0.505-2.128-1.226-4.404-1.095
			c-1.482,0.086-2.897,0.989-4.613,0.863c-1.393-0.102-5.461-0.977-6.43-2.35c-0.998-1.417,0.346-3.681-0.8-5.31
			c-1.946-2.769-6.218-1.763-8.478-0.554c0.153,4.915-13.537,3.795-16.037,1.641c-1.82-1.568-3.044-5.175-1.688-8.123
			c1.148-2.492,4.821-2.183,5.355-4.931c-6.199-2.769-0.753-6.409-3.84-9.402c-2.771-2.684-8.946,2.675-8.337-5.265
			c-4.06-1.152-13.303,4.373-15.75-1.152c-1.543-3.494,1.48-4.878-2.726-6.328c-2.624-0.9-6.497,0.509-8.476,2.37
			c-2.47,2.317-2.832,5.709-6.505,6.067c-1.537,0.151-4.321-1.299-6.477-1.116c-5.67,0.484-8.038,4.198-5.428,10.241
			c4.481,0.737,15.471-1.568,15.718,6.413c0.261,8.339-12.484,6.898-16.815,5.493c-8.093-2.626-1.348-8.803-5.778-13.572
			c-2.197-2.365-5.817-0.244-8.195-1.23c-3.76-1.552-2.445-3.29-2.938-7.183c-2.231-0.77-5.377,1.071-8.109,0.725
			c0.124-0.778-0.405-2.04-0.277-2.818c-4.587-0.648-8.325-0.635-10.139,3.99c-1.203,3.071-0.623,4.948-4.632,6.071
			c-1.967,0.55-4.412,0.314-6.387,0.049c-0.271-2.292-0.004-4.687-0.279-6.979c-1.806-0.261-6.647,0.884-8.058-0.371
			c-2.398-2.125-0.02-5.371-1.311-7.891c-4.182-8.184-8.502,2.561-11.926,3.018c-3.211,0.423-4.565-3.209-8.431-1.454
			c-1.552,0.701-4.092,2.504-4.656,4.406c-1.684,5.66,4.98,6.727,7.684,9.15c2.61,2.338,4.575,4.499,3.561,8.645
			c-0.816,3.335-3.995,3.824-3.085,7.505c0.725,2.936,5.483,4.76,1.248,7.113c-1.541,0.855-4.678,0.525-6.548,1.254
			c-2.663,1.034-5.601,2.744-8.409,2.891c-1.808,0.093-5.973-0.269-7.472-1.279c-1.684-1.136-10.534-10.644-11.324-2.056
			c-5.81,1.559-8.388-3.812-12.867-6.304c-3.268-1.82-4.697-2.154-1.93-5.236c2.631-2.936,4.581-1.584,3.634-6.882
			c-4.862-0.701-7.287,0.692-11.279,2.708c-4.115,2.073-8.435,1.706-12.719-0.989c2.195-5.521-0.09-8.637-4.636-10.449
			c1.061-2.158,4.573-3.856,3.445-6.885c-1.983-1.091-4.487-0.876-6.287-2.5c0.513-1.429,2.647-2.292,2.814-3.938
			c0.136-1.303-2.443-3.681-2.767-5c5.088-4.418,0.265-13.763-3.703-8.335c-2.166,2.96,1.175,4.312-2.895,6.067
			c-2.162,0.932-5.477-0.171-7.356-1.275c0.285-2.272,2.054-5.811-0.33-7.92c-2.006-1.775-6.979,0.476-9.009,1.038
			c-0.017,2.915,3.882,4.532,2.528,8.185c-1.348,3.653-7.24,3.233-9.96,2.92c-1.02-3.722,2.368-3.987-1.063-6.906
			c-1.867-1.592-6.875-2.268-9.192-2.476c-0.124-2.647,0.173-5.346-2.189-6.935c-1.531-1.026-6.757-0.289-8.013,1.071
			c-1.82,1.967-0.794,4.699-2.056,7.057c-1.171,2.187-3.005,2.647-4.679,4.146c-3.504,3.139-7.106,8.258-12.816,7.093
			c-4.699-0.961-13.997-1.417-13.254-0.81L0,689.8v130.331h2001.722V503.925c-2.598,0.57-5.204,1.177-7.721,1.23
			C1990.304,505.232,1986.078,504.442,1983.024,502.031z"/>
    </g>
</svg>