<?xml version="1.0" encoding="utf-8"?>
<!-- Generator: Adobe Illustrator 13.0.0, SVG Export Plug-In . SVG Version: 6.00 Build 14948)  -->
<!DOCTYPE svg PUBLIC "-//W3C//DTD SVG 1.1//EN" "http://www.w3.org/Graphics/SVG/1.1/DTD/svg11.dtd">
<svg version="1.1" id="mountain_10" xmlns="http://www.w3.org/2000/svg" xmlns:xlink="http://www.w3.org/1999/xlink" x="0px" y="0px" width="2000px" height="820px"
	 viewBox="0 0 2000 820" enable-background="new 0 0 2000 820" xml:space="preserve">
	<g>
    <linearGradient id="mtn10_1_" gradientUnits="userSpaceOnUse" x1="1476.275" y1="495.8737" x2="1439.7289" y2="792.3026">
			<stop  offset="0" style="stop-color:#323232"/>
			<stop  offset="0.1747" style="stop-color:#3c3c3c"/>
			<stop  offset="0.4512" style="stop-color:#4f4f4f"/>
			<stop  offset="0.793" style="stop-color:#606060"/>
			<stop  offset="1" style="stop-color:#838383"/>
		</linearGradient>
		<path id="mtn10" fill="url(#mtn10_1_)" d="M1989.624,530.119c-4.039,0.387-6.69-0.908-9.992-2.341
			c-1.938-0.843-1.332-2.052-3.946-1.608c-1.767,0.297-2.928,2.418-4.626,2.932c-3.469,1.047-5.66-0.509-9.068-2.362
			c-5.355-2.908-11.116-5.334-13.356,3.201c-5.338,1.315-8.735-4.882-13.743-4.031c-2.476,0.415-3.917,2.736-6.495,3.196
			c-2.252,0.403-4.426-0.135-6.491-0.811c-3.64-1.193-20.722-20.559-19.619-7.712c-4.459,0.59-6.156-1.262-10.053-2.993
			c-3.718-1.653-6.263-0.354-10.221,0.049c-6.955,0.704-13.425-1.092-20.339-1.067c-7.37,0.025-12.599-4.927-19.72-4.194
			c-3.18,0.326-8.592,1.503-10.058,5.159c-1.213,3.034,0.411,9.028-0.098,12.399c-1.438,0.798-3.237,0.505-4.475,1.152
			c-2.121,1.108-3.335,3.429-5.546,4.321c-3.18,1.287-11.58,0.432-14.667-1.352c-1.38-0.794-3.445-2.207-4.166-3.881
			c-0.619-1.417-0.073-4.023-0.798-5.057c-1.625-2.337-7.855-4.89-10.265-6.202c-3.746-2.04-8.185-2.129-11.666-4.638
			c-1.246-0.904-1.67-2.687-3.172-3.673c-1.783-1.168-2.586-1.185-4.609-1.323c-5.155-0.359-10.327,2.162-15.6,1.087
			c-3.543-0.721-5.407-3.665-9.276-3.233c-4.833,0.537-9.87,1.222-15.062,1.095c-4.149-0.102-4.784-1.93-8.286-3.384
			c-2.911-1.21-9.349-2.073-11.678,0.464c-1.152,1.258-0.102,2.74-1.975,4.011c-1.156,0.786-5.037-0.081-6.324-0.285
			c-1.885-0.297-5.461-1.026-6.788-2.842c-1.625-2.203-0.566-3.628-2.679-5.57c-2.476-2.285-12.301-3.209-14.985-1.042
			c-2.451,1.971-0.879,6.25-2.842,8.441c-2.606,2.92-7.961,0.761-10.815,0.028c0.122-0.753-0.407-2.016-0.281-2.769
			c-4.003-0.648-9.903-3.938-10.078-8.523c-0.191-5.061,2.842-9.166-3.669-10.445c-6.165-1.209-11.755,0.713-17.66-2.846
			c-2.272-1.368-2.875-2.435-4.418-4.654c-1.979-2.858-0.839-2.451-4.561-2.895c-5.061-0.603-12.676,0-13.047,6.254
			c-0.297,5.041,2.765,9.695-3.901,11.511c-4.805,1.315-7.716-1.804-11.332-3.986c-4.231-2.557-8.225-2.456-12.652-1.092
			c-1.034,3.355,2.411,5.733,1.723,9.223c-0.786,4.023-3.42,2.675-6.507,3.107c-8.417,1.177-17.09,4.276-25.833,2.968
			c-1.694-5.082,6.267-3.962,4.369-9.068c-3.685-1.226-7.904,2.011-11.935,0.908c-3.787-1.034-4.084-4.691-6.653-7.346
			c-3.266-3.38-8.348-2.834-11.858-0.024c-2.94,2.353-6.059,6.967-9.842,7.525c-1.886,0.277-3.242-0.916-5.021-0.982
			c-2.378-0.085-4.658,1.12-7.22,0.798c-4.503-0.566-3.493-2.292-5.7-5.204c-1.405-1.857-4.642-3.351-7.464-2.162
			c-2.936,1.234-2.708,4.259-4.87,6.12c-5.737,4.935-6.287-6.36-12.057-0.859c-4.283,4.093-4.5,7.175-10.754,7.48
			c-0.615,5.424,1.198,11.825-4.756,14.223c-3.05,1.23-10.864-2.35-11.312,3.156c-7.231,1.132-11.035-3.144-17.456-4.821
			c-3.775-0.985-7.195-0.863-9.06,2.924c-1.063,2.166-2.248,6.853-2.199,9.223c-10.514,1.344-19.675-8.344-30.466-5.864
			c-4.271,0.982-6.369,6.613-10.18,7.11c-2.472,0.322-5.029-1.918-7.44-2.187c-2.891-0.326-5.737,0.586-8.339,1.853
			c-5.224,2.537-9.561,2.794-14.842,4.227c-6.348,1.722-6.714,9.019-12.029,11.483c-4.251,1.971-10.09-1.482-14.138,0.949
			c-3.616,2.174-5.704,10.432-5.497,14.74c-5.868,0.843-11.007-0.973-16.528-1.694c-3.233-0.419-6.93-0.566-10.225-0.228
			c-4.141,0.427-4.316,0.766-4.634,5.208c-0.297,4.056,0.387,5.847-3.461,7.606c-2.964,1.356-6.474,1.014-9.316-0.57
			c-2.345-1.303-3.127-2.313-5.754-2.862c-2.757-0.578-5.811,0.236-8.356,1.067c-3.889,1.266-3.457,0.53-2.993,5.184
			c0.407,4.158,0.464,6.389-3.506,7.317c-6.084,1.425-11.137-3.001-13.93,5.192c-1.295,3.787-1.095,5.762-5.542,5.265
			c-1.853-0.208-6.206-1.299-7.228-3.388c-3.592-7.325,9.239-7.244,7.089-14.227c-3.661-0.464-10.058-0.025-12.908,2.887
			c-3.347,3.416-1.157,6.951-6.218,9.744c-3.021,1.665-8.396,3.506-11.149,0.554c-1.201-1.291,0.261-3.099-1.995-4.068
			c-0.175-0.073-4.296,1.132-4.682,1.328c-3.926,1.966-5.306,7.476-9.247,8.995c-2.618,1.006-8.747,0.936-11.198-0.554
			c-1.592-0.969-1.877-2.862-3.64-3.486c-1.808-0.643-4.027,0.448-5.587,1.328c-3.937,2.232-5.297,5.44-10.2,3.229
			c-4.919-2.219-12.457-9.072-17.408-2.187c-2.496,3.473-0.663,7.912-4.821,9.199c-4.105,1.27-5.75-0.183-9.296,3.335
			c-3.469,3.445-5.167,5.859-10.204,6.022c-3.453,0.114-7.012-0.599-10.216,1.018c-6.039,3.05-10.2,15.384-18.771,9.712
			c-2.496-1.645-0.932-3.213-4.394-3.481c-0.985-0.078-4.72,1.169-5.574,1.828c-3.278,2.508-1.356,8.066-3.42,11.825
			c-2.448,4.467-6.499,3.999-10.473,4.117c-4.447,0.13-5.521,3.339-9.227,4.475c-3.603,1.104-7.696-1.665-11.177-3.143
			c-3.852-1.637-7.151-1.804-11.125-0.285c-4.243,1.617-9.406,4.825-9.312,10.42c0.073,4.768,2.024,9.003-4.597,9.402
			c-4.08,0.249-6.153-3.714-10.196-4.186c-1.092-0.126-4.776-0.627-5.629,0.155c-2.177,1.979-0.073,3.127,0.112,5
			c0.271,2.712,0.434,5.314-1.883,6.381c-2.612,1.209-3.064-1.621-4.607-1.979c-3.378-0.786-8.856,1.343-11.192,4.279
			c-2.166,2.72-1.238,1.283-0.89,4.899c0.147,1.527,0.448,4.842,0.025,6.275c-1.234,4.174-6.409,7.366-10.29,7.322
			c-4.047-0.049-6.305-2.769-10.155-3.148c-3.913-0.387-7.289,0.261-10.986,1.225c-0.759,4.1,2.119,8.168-0.076,11.569
			c-2.355,3.652-8.575,3.253-12.022,2.683c5.399-9.223-14.824-11.255-19.431-3.775c-0.715,1.161-0.513,4.455-1.042,6.018
			c-0.8,2.35-1.983,4.007-3.712,5.464c-3.63,3.054-6.8,2.395-11.01,3.034c-0.572,5.037,1.401,8.893-2.924,11.304
			c-3.781,2.109-9.661,0.216-6.252,7.069c1.348,2.704,3.327,3.209,1.889,6.54c-0.759,1.767-3.591,3.262-5.09,4.113
			c-4.623,2.631-10.457,1.462-10.015,8.344l-0.025,4.17v43.781l1121.157,29.404V534.44c-1.287-0.615-2.516-1.319-3.587-2.26
			C1994.331,528.849,1994.609,529.643,1989.624,530.119z"/>
    </g>
</svg>