<?xml version="1.0" encoding="utf-8"?>
<!-- Generator: Adobe Illustrator 13.0.0, SVG Export Plug-In . SVG Version: 6.00 Build 14948)  -->
<!DOCTYPE svg PUBLIC "-//W3C//DTD SVG 1.1//EN" "http://www.w3.org/Graphics/SVG/1.1/DTD/svg11.dtd">
<svg version="1.1" id="mountain_1" xmlns="http://www.w3.org/2000/svg" xmlns:xlink="http://www.w3.org/1999/xlink" x="0px" y="0px" width="2000px" height="820px"
	 viewBox="0 0 2000 820" enable-background="new 0 0 2000 820" xml:space="preserve">
	<g>
		<linearGradient id="mtn1_1_" gradientUnits="userSpaceOnUse" x1="1000.8611" y1="252.1469" x2="1000.8611" y2="146.3652">
			<stop  offset="0" style="stop-color:#909090"/>
			<stop  offset="0.6092" style="stop-color:#858585"/>
			<stop  offset="1" style="stop-color:#909090"/>
		</linearGradient>
		<path id="mtn1" opacity="0.9" fill="url(#mtn1_1_)" d="M1968.072,157.144c-21.683-3.769-34.115,9.058-54.706,12.56
			c-20.905,3.553-35.352,7.138-54.934,15.433c-21.374,9.056-43.643,1.315-64.789-4.98c-36.537-10.874-60.725,1.535-93.728,17.489
			c-24.745,11.963-48.733,0.57-71.687-10.217c-25.454-11.957-45.288-6.226-70.868-10.689c-9.712-1.694-14.757-10.326-23.463-13.344
			c-14.712-5.1-35.067,5.055-50.174,6.713c-15.905,1.745-30.788-0.131-45.911-6.108c-34.131-13.494-68.596-8.211-104.319-9.143
			c-17.432-0.456-31.395,9.785-48.46,10.42c-17.839,0.666-30.243-3.286-48.46,2.054c-31.619,9.27-64.988,32.321-98.101,23.978
			c-17.363-4.377-29.847-7.659-48.204-8.311c-16.084-0.572-30.1-2.948-44.734-7.297c-31.285-9.298-66.261,16.687-98.808,20.877
			c-37.061,4.773-62.919-26.347-98.775,1.303c-33.197,25.6-55.352,38.048-95.968,35.153c-22.09-1.576-42.053,5.831-63.365,6.255
			c-16.96,0.338-27.63-8.14-42.143-16.393c-17.155-9.757-29.589-9.064-48.252-8.625c-16.991,0.399-30.974-6.189-47.53-7.297
			c-18.501-1.242-32.15-0.33-49.386-8.572c-17.516-8.376-34.988-19.883-54.279-22.701c-40.174-5.868-66.969,50.944-105.103,37.555
			c-30.748-10.794-59.793-20.172-92.234-12.509c-17.994,4.251-31.582,16.833-49.181,24.236c-27.699,11.65-54.22,10.51-83.169,14.248
			C76.149,244.55,40.343,271.385,0,267.178v178.795l2001.722-56.8V159.371C1989.987,162.529,1982.156,159.593,1968.072,157.144z"/>		
	</g>
</svg>
