<?xml version="1.0" encoding="utf-8"?>
<!-- Generator: Adobe Illustrator 13.0.0, SVG Export Plug-In . SVG Version: 6.00 Build 14948)  -->
<!DOCTYPE svg PUBLIC "-//W3C//DTD SVG 1.1//EN" "http://www.w3.org/Graphics/SVG/1.1/DTD/svg11.dtd">
<svg version="1.1" id="mountain_2" xmlns="http://www.w3.org/2000/svg" xmlns:xlink="http://www.w3.org/1999/xlink" x="0px" y="0px" width="2000px" height="820px"
	 viewBox="0 0 2000 820" enable-background="new 0 0 2000 820" xml:space="preserve">
	<g><path id="mtn2" fill="#818181" d="M205.847,485.3c117.667-0.016,235.466,3.648,353.008-4.202
			c59.795-3.999,119.487-10.978,178.453-22.921c26.144-5.293,51.819-8.058,77.566-12.631c26.555-4.715,51.677-16.398,77.701-23.556
			c84.342-23.198,169.14-44.413,253.6-67.02c64.031-17.139,127.55-37.157,193.882-37.494c42.637-0.22,85.172,1.038,127.81,1.038
			c64.878,0,132.191,1.128,196.158-12.436c15.778-3.347,53.912-17.147,60.81-34.953c13.067-33.728-79.179-27.115-95.181-27.665
			c-55.594-1.91-111.14,2.081-166.648,2.085c-92.327,0.008-184.194,0.391-275.866,10.453c-52.1,5.721-106.538,19.358-158.581,15.84
			c-26.59-1.796-52.174,3.086-78.8,3.937c-27.146,0.867-54.179-2.508-81.256,0.232c-50.506,5.106-98.195,14.244-148.897,11.238
			c-55.486-3.29-106.933,20.523-162.365,20.844c-72.949,0.419-146.482-2.81-219.274-7.269
			c-66.824-4.092-134.121-6.405-201.031-6.283C95.21,294.611,44.606,288.308,0,295.938v192.383c2.521,0.045,4.99,0.085,7.382,0.13
			C73.584,489.709,139.664,485.308,205.847,485.3z"/>
    </g>
</svg>
