<?xml version="1.0" encoding="utf-8"?>
<!-- Generator: Adobe Illustrator 13.0.0, SVG Export Plug-In . SVG Version: 6.00 Build 14948)  -->
<!DOCTYPE svg PUBLIC "-//W3C//DTD SVG 1.1//EN" "http://www.w3.org/Graphics/SVG/1.1/DTD/svg11.dtd">
<svg version="1.1" id="mountain_2" xmlns="http://www.w3.org/2000/svg" xmlns:xlink="http://www.w3.org/1999/xlink" x="0px" y="0px" width="2000px" height="820px"
	 viewBox="0 0 2000 820" enable-background="new 0 0 2000 820" xml:space="preserve">
	<g>
    <linearGradient id="mtn3_1_" gradientUnits="userSpaceOnUse" x1="645.1609" y1="208.0423" x2="645.1609" y2="324.3225">
			<stop  offset="0" style="stop-color:#6e6e6e"/>
			<stop  offset="0.5561" style="stop-color:#797979"/>
			<stop  offset="1" style="stop-color:#7e7e7e"/>
		</linearGradient>
		<path id="mtn3" fill="url(#mtn3_1_)" d="M209.852,323.493c61.348-2.744,122.03-8.107,183.561-8.107
			c43.179,0,86.586,0.904,129.585-2.056c57.449-3.954,112.264-12.537,170.097-12.537c55.201,0,110.172-16.097,165.174-8.567
			c70.746,9.683,146.602,3.685,217.783,1.246c39.681-1.36,79.35-3.033,118.795-4.145c30.739-0.867,65.961,5.713,95.474-2.06
			c-8.099-4.117-15.99-3.922-24.814-4.194c-40.911-1.275-80.791-11.723-121.193-6.022c-34.481,4.866-74.162-0.977-108.31-9.614
			c-38.3-9.691-77.91-12.142-116.068-21.891c-37.525-9.585-74.577-12.411-110.38-28.927c-18.967-8.75-36.997-9.765-57.569-7.61
			c-22.188,2.325-50.382,0.012-70.825,9.667c-16.587,7.834-30.179,20.767-48.204,25.568c-23.401,6.23-47.073,4.67-71.078,5.42
			c-58.868,1.836-118.483,6.556-177.318,10.477c-47.379,3.16-98.113,13.161-146.079,4.98
			c-41.878-7.142-81.447-19.113-124.614-19.574C74.622,245.129,35.921,260.129,0,266.893v50.545
			c17.149,0.888,33.551,0.603,39.785,1.018C96.487,322.235,152.759,326.046,209.852,323.493z"/>
    </g>
</svg>
