<?xml version="1.0" encoding="utf-8"?>
<!-- Generator: Adobe Illustrator 13.0.0, SVG Export Plug-In . SVG Version: 6.00 Build 14948)  -->
<!DOCTYPE svg PUBLIC "-//W3C//DTD SVG 1.1//EN" "http://www.w3.org/Graphics/SVG/1.1/DTD/svg11.dtd">
<svg version="1.1" id="mountain_4" xmlns="http://www.w3.org/2000/svg" xmlns:xlink="http://www.w3.org/1999/xlink" x="0px" y="0px" width="2000px" height="820px"
	 viewBox="0 0 2000 820" enable-background="new 0 0 2000 820" xml:space="preserve">
	<g>
    <linearGradient id="mtn4_1_" gradientUnits="userSpaceOnUse" x1="394.0354" y1="274.3953" x2="394.0354" y2="360.7771">
			<stop  offset="0" style="stop-color:#707070"/>
			<stop  offset="0.2479" style="stop-color:#7a7a7a"/>
			<stop  offset="0.5723" style="stop-color:#818181"/>
			<stop  offset="1" style="stop-color:#818181"/>
		</linearGradient>
		<path id="mtn4" fill="url(#mtn4_1_)" d="M224.694,357.135c38.979-2.5,78.399-2.749,117.529-5.293
			c26.382-1.715,65.226-0.513,85.492-17.693c16.593-14.073,29.485-19.537,53.279-18.759c33.787,1.103,67.482,2.288,101.34,1.038
			c32.94-1.213,65.829,0.151,98.828-0.989c33.994-1.173,74.278,3.38,106.909-5.269c-15.968-7.549-41.444,0.371-59.13-0.806
			c-37.678-2.504-78.114-2.109-114.923-8.543c-35.853-6.262-73.433-1.201-109.962-5.008c-17.505-1.824-30.725,1.608-48.159,2.895
			c-22.972,1.694-45.52-6.922-67.356-13.291c-27.427-8.005-46.709-1.368-73.847,3.123c-22.927,3.795-44.085-4.487-67.847,0.525
			c-29.096,6.137-41.436,5.44-67.979-7.269c-18.456-8.836-33.699-8.176-53.375-6.047c-22.733,2.464-45.207-1.877-67.775,3.384
			c-16.284,3.799-39.575,20.03-57.718,20.62v55.993c6.584,0.778,12.76,1.022,16.701,1.331
			C85.193,362.449,156.159,361.533,224.694,357.135z"/>
    </g>
</svg>