<?xml version="1.0" encoding="utf-8"?>
<!-- Generator: Adobe Illustrator 13.0.0, SVG Export Plug-In . SVG Version: 6.00 Build 14948)  -->
<!DOCTYPE svg PUBLIC "-//W3C//DTD SVG 1.1//EN" "http://www.w3.org/Graphics/SVG/1.1/DTD/svg11.dtd">
<svg version="1.1" id="mountain_4" xmlns="http://www.w3.org/2000/svg" xmlns:xlink="http://www.w3.org/1999/xlink" x="0px" y="0px" width="2000px" height="820px"
	 viewBox="0 0 2000 820" enable-background="new 0 0 2000 820" xml:space="preserve">
	<g>
    <linearGradient id="mtn5_1_" gradientUnits="userSpaceOnUse" x1="985.5204" y1="292.1682" x2="999.0176" y2="483.0139">
			<stop  offset="0" style="stop-color:#323232"/>
			<stop  offset="0.1129" style="stop-color:#484848"/>
			<stop  offset="0.5093" style="stop-color:#666666"/>
			<stop  offset="0.8183" style="stop-color:#707070"/>
			<stop  offset="1" style="stop-color:#8c8c8c"/>
		</linearGradient>
		<path id="mtn5" fill="url(#mtn5_1_)" d="M1977.433,202.752c-6.857,0.916-13.816,6.523-19.797,10.245
			c-5.974,3.718-12.033,8.979-18.597,10.652c-7.932,2.024-19.496,1.091-27.563,1.047c-16.141-0.09-31.546,1.27-47.735,2.085
			c-16.096,0.81-31.513,5.322-47.544,6.254c-3.645,0.212-8.649-1.169-12.114-0.025c-2.997,0.989-5.526,5.42-7.671,6.014
			c-7.281,2.02-12.326-5.086-20.266-5.99c-7.904-0.9-16.333,0-24.277,0c-9.292,0-12.232,3.339-19.545,5.237
			c-3.217,0.835-6.527-2.879-10.041,0.187c-1.69,1.474-0.22,7.688-2.708,9.479c-3.201,2.309-7.106-1.857-10.526-2.162
			c-4.341-0.391-6.637,1.531-10.204,2.134c-7.936,1.343-15.217-3.714-22.408-2.366c-8.946,1.674-5.603,13.034-13.026,14.643
			c-4.638,1.002-15.127-7.676-20.527-8.384c-10.143-1.328-12.961,5.42-20.547,7.346c-2.692,0.684-6.141-2.675-10.253-1.091
			c-2.927,1.128-2.264,5.151-5.521,6.275c-3.942,1.36-7.541-1.759-11.202-1.063c-3.644,0.692-4.964,2.96-8.392,4.422
			c-7.806,3.335-13.881,3.29-22.363,3.913c-10.901,0.798-9.064,7.68-17.66,11.515c-6.36,2.846-18.124-1.246-25.209-0.859
			c-8.344,0.456-16.557,2.349-25.209,1.853c-15.502-0.892-29.623-7.195-45.614-6.307c-7.81,0.432-15.461,0.395-23.296,0.053
			c-9.793-0.427-13.767,4.793-22.367,8.335c-8.677,3.575-18.662-0.452-27.042,3.16c-5.302,2.289-10.387,9.692-16.715,11.719
			c-29.835,9.577-65.013,23.87-96.033,14.256c-8.038-2.492-14.944-4.788-23.291-3.046c-9.463,1.975-14.818,3.53-24.208,0.236
			c-6.425-2.256-15.168-8.873-22.404-6.307c-3.485,1.234-5.004,6.446-8.579,7.896c-3.563,1.441-8.433-0.232-11.902-0.778
			c-4.394-0.684-6.857-2.997-11.185-0.835c-3.645,1.82-4.329,7.269-8.364,8.938c-7.199,2.973-16.703-3.815-24.252-0.831
			c-7.781,3.074-6.589,15.868-13.959,17.742c-4.638,1.181-7.317-4.162-11.206-5.257c-3.571-1.006-7.834,0.643-11.186,0.831
			c-3.428,0.191-9.105-1.03-12.322,0.183c-6.262,2.366-4.357,7.374-8.181,10.522c-5.68,4.679-12.562-0.761-18.841-1.877
			c-3.909-0.696-8.718-2.646-12.839-1.295c-6.336,2.076-3.282,2.292-6.528,6.25c-2.667,3.258-2.15,9.406-9.316,7.061
			c-4.826-1.576-3.148-5.689-6.478-8.103c-8.547-6.202-15.909-0.11-24.481,2.341c-4.878,1.393-9.386,1.136-13.535,4.174
			c-3.453,2.533-2.168,7.211-7.692,8.132c-6.774,1.132-13.462-8.295-21.666-8.388c-5.972-0.069-20.69,11.91-21.339,1.197
			c-6.045-1.006-11.027,3.331-17.568,2.964c-5.904-0.33-10.754-3.115-16.815-1.319c-4.852,1.434-5.676,5.42-12.073,5.518
			c-10.111,0.155-20.089-5.933-29.823-5.29c-5.263,0.35-8.414,6.368-13.044,7.138c-9.188,1.527-9.614-4.935-18.383,0.448
			c-3.732,2.292-4.387,7.077-9.595,5.807c-2.828-0.688-3.612-5.86-6.456-7.134c-3.259-1.462-8.628,0.615-12.161,0.045
			c-3.64-0.586-6.584-3.632-10.245-3.119c-7.737,1.083-10.036,9.642-17.707,10.416c-13.217,1.336-28.882-3.457-42.871,1.307
			c-10.931,3.722-16.115,0.741-27.278-1.091c-10.659-1.751-14.865,5.204-23.978,7.916c-7.836,2.333-17.206-0.733-25.161,0.998
			c-9.756,2.122-17.833,7.826-27.952,8.596c-9.015,0.688-15.673,1.6-24.234,5.216c-8.376,3.534-13.812,11.682-21.388,15.396
			c-4.06,1.991-8.122,0.049-12.161,1.49c-3.874,1.38-6.591,6.189-10.202,8.331c-6.788,4.023-14.81,3.066-22.414,5.762
			c-12.92,4.581-19.58,18.381-31.734,25.303c-28.123,16.019-61.165-10.375-84.542-26.341c-13.943-9.52-23.705-19.321-39.4-24.733
			c-15.243-5.253-29.392-7.334-43.049-17.717c-7.008-5.33-11.363-6.185-19.339-6.259c-7.244-0.065-12.813-3.176-20.502-4.17
			c-16.164-2.089-30.377,5.668-46.595,3.937c-7.423-0.79-14.712-3.029-20.5-7.875c-7.128-5.966-6.902-7.993-15.844-9.614
			c-4.174-0.757-6.33-0.688-10.015-2.345c-2.952-1.328-4.762-5.692-8.622-5.758c-8.01-0.138-6.975,9.455-17.707,7.114
			c-14.362-3.127-27.029-15.669-42.867-11.287c-8.681,2.402-9.355,9.097-18.452,3.909c-2.968-1.694-4.07-5.636-7.645-7.033
			c-3.18-1.242-7.804-0.114-11.18-0.236c-16.483-0.595-31.7-5.237-48.456-5.212c-14.946,0.02-28.935,1.783-43.745,2.007v482.932
			h2001.722V198.028c-4.479,1.478-8.563,4.833-13.152,5.611C1984.844,204.271,1981.367,202.226,1977.433,202.752z"/>
    </g>
</svg>