<?xml version="1.0" encoding="utf-8"?>
<!-- Generator: Adobe Illustrator 13.0.0, SVG Export Plug-In . SVG Version: 6.00 Build 14948)  -->
<!DOCTYPE svg PUBLIC "-//W3C//DTD SVG 1.1//EN" "http://www.w3.org/Graphics/SVG/1.1/DTD/svg11.dtd">
<svg version="1.1" id="mountain_6" xmlns="http://www.w3.org/2000/svg" xmlns:xlink="http://www.w3.org/1999/xlink" x="0px" y="0px" width="2000px" height="820px"
	 viewBox="0 0 2000 820" enable-background="new 0 0 2000 820" xml:space="preserve">
	<g>
    <linearGradient id="mtn6_1_" gradientUnits="userSpaceOnUse" x1="1120.5088" y1="347.3367" x2="1120.5088" y2="541.2397">
			<stop  offset="0" style="stop-color:#838383"/>
			<stop  offset="0.0386" style="stop-color:#464646"/>
			<stop  offset="0.3257" style="stop-color:#5e5e5e"/>
			<stop  offset="0.591" style="stop-color:#6d6d6d"/>
			<stop  offset="0.8242" style="stop-color:#7a7a7a"/>
			<stop  offset="1" style="stop-color:#838383"/>
		</linearGradient>
		<path id="mtn6" fill="url(#mtn6_1_)" d="M1534.052,527.786c-2.195-1.979-5.42-0.884-7.7-3.608
			c-2.793-3.331-2.004-8.38-4.605-11.772c-3.722-4.87-8.742-5.448-13.971-7.276c-15.567-5.448-24.073-15.128-37.275-24.049
			c-10.086-6.821-22.558-5.106-32.706-11.446c-8.115-5.078-9.903-4.707-19.757-6.23c-13.718-2.122-7.855-13.511-17.619-20.107
			c-7.549-5.107-18.8-0.924-27.176-5.978c-3.685-2.223-7.557-5.42-10.864-8.05c-6.173-4.907-9.96-12.55-17.656-13.837
			c-5.42-0.904-8.49,2.415-14.048-0.993c-3.803-2.325-4.96-6.743-8.112-9.687c-5.875-5.497-15.009-13.852-22.62-15.38
			c-10.485-2.101-20.421,1.401-30.539-4.377c-5.868-3.347-5.652-6.49-12.33-4.247c-4.3,1.446-5.204,6.446-10.249,6.613
			c-4.894,0.163-7.757-6.031-12.118-6.32c-4.711-0.314-6.552,4.023-10.269,4.964c-4.939,1.242-5.452-1.234-9.044-1.873
			c-3.478-0.623-6.678,0.489-10.551,0.053c-6.14-0.692-14.96-9.516-18.637-2.109c-1.482,2.989,3.376,9.598,0.13,12.839
			c-3.783,3.783-9.24-0.704-11.516-3.437c-8.783-10.518-0.639-17.175-15.616-11.462c-6.661,2.541-13.568,4.137-21.414,5.004
			c-5.359,0.595-6.181-0.826-12.11,2.036c-4.792,2.317-5.461,3.954-11.414,4.422c-8.979,0.708-16.87,3.119-25.861,4.174
			c-3.99,0.468-8.38-0.969-12.118,0.761c-4.206,1.946-5.33,7.089-9.321,8.926c-7.957,3.665-14.842-3.62-23.34,1.527
			c-7.26,4.394-8.596,9.846-18.572,6.275c-9.818-3.514-13.641-6.865-24.318-1.877c-9.618,4.487-8.801,5.497-18.759-0.733
			c-8.392-5.253-13.354-7.171-23.157-7.582c-16.862-0.704-33.818-1.246-50.225-5.444c-7.877-2.016-15.443-5.941-22.628-7.895
			c-9.394-2.557-13.213,4.308-21.221,6.039c-4.19,0.904-8.663-2.431-13.096-1.087c-3.269,0.989-3.371,5.265-6.454,6.328
			c-3.868,1.331-8.305-1.157-12.159,0.766c-3.323,1.657-3.486,6.193-7.437,7.83c-9.056,3.754-9.149-8.014-19.566-5.493
			c-10.473,2.537-10.157,6.988-19.338-0.028c-7.329-5.603-11.301-10.551-20.734-8.05c-8.822,2.337-14.252,9.594-23.296,11.206
			c-6.816,1.213-14.915-0.468-21.388,2.06c-5.033,1.967-18.739,18.063-20.549,13.576l-5.591,149.066l848.032-6.255
			c1.193,0.456,1.274,1.193,2.626,0.908c0.562-11.397-1.954-22.49-7.309-32.205C1536.373,530.433,1537.232,530.653,1534.052,527.786
			z"/>
    </g>
</svg>