<?xml version="1.0" encoding="utf-8"?>
<!-- Generator: Adobe Illustrator 13.0.0, SVG Export Plug-In . SVG Version: 6.00 Build 14948)  -->
<!DOCTYPE svg PUBLIC "-//W3C//DTD SVG 1.1//EN" "http://www.w3.org/Graphics/SVG/1.1/DTD/svg11.dtd">
<svg version="1.1" id="mountain_7" xmlns="http://www.w3.org/2000/svg" xmlns:xlink="http://www.w3.org/1999/xlink" x="0px" y="0px" width="2000px" height="820px"
	 viewBox="0 0 2000 820" enable-background="new 0 0 2000 820" xml:space="preserve">
	<g>
    <linearGradient id="mtn7_1_" gradientUnits="userSpaceOnUse" x1="1528.649" y1="277.8266" x2="1528.649" y2="682.0677">
			<stop  offset="0" style="stop-color:#333333"/>
			<stop  offset="0.0386" style="stop-color:#404040"/>
			<stop  offset="0.3257" style="stop-color:#555555"/>
			<stop  offset="0.591" style="stop-color:#6b6b6b"/>
			<stop  offset="0.8242" style="stop-color:#717171"/>
			<stop  offset="1" style="stop-color:#9a9a9a"/>
		</linearGradient>
		<path id="mtn7" fill="url(#mtn7_1_)" d="M1944.776,284.113c-15.384-1.755-25.442,3.738-40.052,8.103
			c-12.981,3.88-26.284,0.66-39.347,3.628c-12.269,2.789-22.371,10.367-35.202,10.212c-8.217-0.098-12.717-1.796-20.506,1.775
			c-15.807,7.236-29.501,7.5-45.825,12.509c-11.108,3.408-21.988,4.646-33.41,7.321c-14.321,3.355-19.456,9.801-30.662,18.76
			c-12.566,10.053-26.256,0.228-35.202,6.47c-6.776,4.736-4.87,8.966-15.16,8.36c-5.049-0.297-9.101-2.354-13.938-3.152
			c-11.882-1.963-23.067-0.924-34.501-3.884c-3.754-0.969-9.732-3.001-13.136,0.704c-2.407,2.619-0.542,9.125-2.92,12.611
			c-4.17,6.124-25.682,10.066-24.183-1.951c-6.922-0.395-12.912-2.227-19.432-3.078c-11.467-1.499-15.489,6.149-24.883,10.469
			c-7.782,3.583-14.231-0.126-21.687,1.576c-8.69,1.987-13.979,5.77-23.316,3.64c-6.739-1.539-11.173-5.383-18.633-4.422
			c-7.455,0.961-13.282,5.66-21.671,5.208c-14.956-0.806-30.43,0.187-45.435,4.406c-4.752,1.336-8.73,5.351-13.718,6.8
			c-5.212,1.515-9.936,0.509-15.164,1.303c-7.818,1.185-16.21,5.497-23.3,9.667c-9.255,5.444-13.124,17.061-23.572,19.541
			c-5.648,1.34-8.404,0.293-13.702,3.107c-4.715,2.504-7.899,6.955-13.071,8.592c-4.402,1.393-8.637,0.428-13.047,2.594
			c-4.088,2.008-7.142,6.564-11.165,8.934c-3.701,2.187-7.02,2.504-10.2,5.135c-3.987,3.307-5.908,7.35-10.274,9.985
			c-7.199,4.345-14.838,8.123-22.387,12.717c-11.312,6.89-26.777,15.188-36.342,24.786c-6.922,6.947-7.822,7.981-18.621,9.842
			c-12.928,2.231-12.611,7.244-21.227,14.675c-4.699,4.056-15.978,7.281-21.658,10.139c-7.057,3.551-18.185,2.276-24.297,8.258
			c-2.349,2.297-2.243,6.894-4.78,9.17c-2.92,2.614-7.016,1.885-10.298,3.396c-11.332,5.208-12.879,14.166-16.768,26.337
			c-2.137,6.682-7.647,13.234-6.295,20.567l945.936,83.145v-403.9c-3.754-0.22-7.537-0.427-11.454-0.305
			C1974.497,278.36,1960.922,285.958,1944.776,284.113z"/>
    </g>
</svg>