<?xml version="1.0" encoding="utf-8"?>
<!-- Generator: Adobe Illustrator 13.0.0, SVG Export Plug-In . SVG Version: 6.00 Build 14948)  -->
<!DOCTYPE svg PUBLIC "-//W3C//DTD SVG 1.1//EN" "http://www.w3.org/Graphics/SVG/1.1/DTD/svg11.dtd">
<svg version="1.1" id="mountain_8" xmlns="http://www.w3.org/2000/svg" xmlns:xlink="http://www.w3.org/1999/xlink" x="0px" y="0px" width="2000px" height="820px"
	 viewBox="0 0 2000 820" enable-background="new 0 0 2000 820" xml:space="preserve">
	<g>
    <linearGradient id="mtn8_1_" gradientUnits="userSpaceOnUse" x1="846.3794" y1="373.0294" x2="891.2767" y2="712.256">
			<stop  offset="0" style="stop-color:#343434"/>
			<stop  offset="0.3896" style="stop-color:#565656"/>
			<stop  offset="1" style="stop-color:#838383"/>
		</linearGradient>
		<path id="mtn8" fill="url(#mtn8_1_)" d="M1779.871,822V582.244c-12.863-4.548-17.428-12.855-24.872-23.56
			c-7.5-10.791-18.067-11.402-28.793-16.43c-12.782-5.998-19.606-18.185-29.069-28.862c-7.187-8.12-12.521-8.311-22.823-5.448
			c-7.847,2.178-14.712,6.849-23.047,3.412c-5.957-2.459-10.204-6.763-16.06-8.771c-6.063-2.077-12.941-5.065-19.35-5.819
			c-8.332-0.982-11.686-0.383-18.637-5.448c-7.879-5.742-8.478-5.18-18.597-4.166c-8.335,0.835-14.252-1.006-20.771-6.776
			c-13.018-11.523-30.356-13.97-46.49-12.281c-7.138,0.749-12.997,2.41-19.04,6.927c-4.548,3.404-7.513,9.561-13.462,10.298
			c-3.531,0.436-8.331-3.701-12.11-4.186c-4.027-0.517-7.374,0.574-11.177,1.271c-5.505,1.006-39.095,2.011-42.104-4.219
			c-8.913-1.706-13.152,2.48-19.146,8.185c-7.957,7.578-8.852,5.636-17.917,5.131c-18.894-1.059-14.468,22.591-27.078,32.136
			c-6.596,4.997-15.107-0.452-21.398,4.353c-9.411,7.179-3.05,13.099-14.989,12.814c-3.005-0.069-5.672-1.759-9.268-1.295
			c-3.009,0.387-3.335,3.872-7.505,3.172c-4.703-0.786-12.359-13.564-12.228,1.877c-1.918,0.338-3.632,0.049-5.269-1.067
			c0.143-1.429-0.493-3.453-0.306-4.895c-7.545,3.689-7.431-4.271-12.859-5.395c-8.225-1.71-7.012,7.435-11.418,8.176
			c-7.61,1.283-3.832-10.062-10.062-10.31c-3.494-0.138-3.482,4.984-5.567,6.348c-1.014,0.668-6.25,2.728-6.592,3.078
			c-3.661,3.706-4.939,7.004-9.276,9.431c-2.448,1.372-5.631-0.423-8.409,1.311c-2.504,1.568-2.174,6.067-4.406,7.11
			c-7.623,3.559-5.297-3.364-9.736-5.082c-4.381-1.698-9.26,1.568-14.561,0.652c-1.006-5.391-5.066-5.819-9.48-5.082
			c-6.869,1.144-5.212,3.84-7.268,8.417c-1.967,4.373,4.952,5.151-2.985,7.272c-3.876,1.034-8.213-2.749-12.11-3.123
			c-10.156-0.982-18.071,8.449-27.962,7.293c-5.35-0.627-6.421-4.451-10.229-5.233c-7.513-1.547-13.181,5.192-20.221,5.163
			c-3.929-0.012-14.211-10.017-13.511-10.172c-6.462,1.425-10.966,0.672-14.773-4.324c-1.527-2.007-0.135-6.372-2.517-8.673
			c-2.101-2.032-5.908,0.036-8.453-0.949c-2.337-0.908-3.086-4.329-6.714-5.025c-3.441-0.663-5.949,1.645-8.637,1.853
			c-7.635,0.586-6.238-1.938-13.731-5.762c-11.202-5.721-6.071,6.548-14.854,3.673c-4.891-1.6-5.815-7.472-9.626-9.952
			c-2.84-1.849-6.11-0.578-9.062-2.301c-7.741-4.507-9.736-10.298-19.572-11.462c-11.139-1.315-10.288-3.93-18.639-10.164
			c-7.706-5.75-12.499,1.559-21.432,0.806c-9.229-0.778-11.866-7.232-19.57-11.288c-8.561-4.507-16.951-2.692-24.951-9.589
			c-3.815-3.29-2.92-6.776-8.596-7.289c-4.475-0.407-5.552,4.019-9.321,4.475c-4.479,0.546-5.346-2.598-9.32-2.39
			c-3.59,0.187-5.815,3.494-8.569,3.958c-9.276,1.555-14.498-4.333-21.298-9.98c-5.521-4.585-12.191-11.727-18.609-14.598
			c-7.281-3.254-14.183-0.468-21.412-5.448c-8.25-5.68-10.151-7.826-20.502-8.335c-9.119-0.448-13.973-4.031-21.461-9.125
			c-14.232-9.679-30.505-6.698-45.636-12.818c-28.315-11.454-63.077-10.713-93.19-4.117c-8.189,1.792-12.206,8.36-20.732,8.596
			c-3.985,0.11-7.714-3.229-11.906,0.558c-3.789,3.425-0.409,7.297-2.936,10.701c-5.304,7.154-14.958,1.519-20.569,0.183
			c-3.791-0.904-6.208-2.985-10.046-1.323c-3.394,1.466-3.929,6.91-7.36,8.775c-2.358,1.283-7.594,0.55-10.127,0.444
			c-8.229-0.346-14.091-2.117-20.447-8.392c-6.475-6.389-21.337-24.855-30.998-18.495c-7.452,4.903,0.998,7.537-2.06,13.572
			c-3.583,7.073-9.93,1.022-14.718,0.208c-11.196-1.906-12.804,7.334-25.163,2.923c-8.582-3.062-11.902-9.447-21.455-7.089
			c-4.41,1.087-5.589,3.665-11.208,3.93c-2.541,0.118-7.871-0.582-10.202-0.985c-8.864-1.527-14.915-3.115-23.342,1.775
			c-6.896,3.995-12.383,9.785-18.358,13.857c-8.368,5.705-12.758-1.059-21.669-0.045c-9.773,1.112-8.211,14.891-18.66,12.297
			c-3.38-0.839-4.964-5.412-7.619-7.065c-4.284-2.663-8.404-2.484-12.902-5.004c-3.473-1.951-6.301-8.221-10.174-9.125
			c-3.666-0.859-8.416,3.388-12.136,3.824c-6.226,0.725-13.999-1.759-20.59-1.458c-11.758,0.529-14.985-0.986-26.022-4.939
			c-6.381-2.285-12.957-5.599-19.57-7.297c-4.269-1.095-7.902,0.293-12.159-1.8c-2.887-1.417-3.96-5.424-7.409-6.332
			c-10.119-2.667-7.845,13.205-17.754,8.18c-3.626-1.841-1.692-7.505-5.522-9.508c-2.889-1.511-9.636,2.183-13.067,2.162
			c-6.407-0.041-13.325-3.53-18.688-6.202c-3.213-1.6-7.332-2.7-10.204-4.223c-0.957-0.509-6.433-4.96-6.716-5.025
			c-8.164-1.918-16.966,2.219-24.99,2.679c-7.272,0.415-14.51-4.133-23.135-0.599c-0.043,1.205-0.316,2.623-0.279,3.824
			c-4.613-1.547-14.343-6.156-18.503-6.112c-10.235,0.114-6.273,8.625-11.106,13.6c-7.109,7.317-7.779-3.029-14.962-4.218
			c-3.956-0.643-10.015,2.056-15.808,5.538V822H1779.871z"/>
    </g>
</svg>