<?xml version="1.0" encoding="utf-8"?>
<!-- Generator: Adobe Illustrator 13.0.0, SVG Export Plug-In . SVG Version: 6.00 Build 14948)  -->
<!DOCTYPE svg PUBLIC "-//W3C//DTD SVG 1.1//EN" "http://www.w3.org/Graphics/SVG/1.1/DTD/svg11.dtd">
<svg version="1.1" id="mountain_9" xmlns="http://www.w3.org/2000/svg" xmlns:xlink="http://www.w3.org/1999/xlink" x="0px" y="0px" width="2000px" height="820px"
	 viewBox="0 0 2000 820" enable-background="new 0 0 2000 820" xml:space="preserve">
	<g>
    <linearGradient id="mtn9_1_" gradientUnits="userSpaceOnUse" x1="253.4037" y1="492.4794" x2="279.3419" y2="774.1049">
			<stop  offset="0" style="stop-color:#282828"/>
			<stop  offset="0.2712" style="stop-color:#282828"/>
			<stop  offset="0.6993" style="stop-color:#3b3b3b"/>
			<stop  offset="1" style="stop-color:#4e4e4e"/>
		</linearGradient>
		<path id="mtn9" fill="url(#mtn9_1_)" d="M482.899,775.356c1.434-6.071,2.847-13.291,4.565-20.054
			c5.531-21.785,49.867-12.998,66.959-13.568c-2.169-3.824-2.152-8.404-2.796-12.509c-0.723-4.622-0.824-4.801-4.658-7.558
			c-2.73-1.963-5.283-4.141-8.386-5.237c-2.905-1.026-6.843-1.034-9.343-2.765c-2.993-2.073-3.312-5.782-6.478-7.374
			c-1.643-0.826-2.659-0.114-3.819-2.036c-0.57-0.941-0.338-3.624-1.095-5.053c-1.138-2.15-3.268-4.418-4.658-6.434
			c-2.634-3.824-3.119-2.39-7.224-3.103c-6.729-1.165-6.515-10.432-12.998-11.572c-5.959-1.05-9.797,6.772-15.891,3.176
			c-3.023-1.783-3.231-5.794-6.526-7.081c-4.617-1.8-4.67,2.683-7.201,5.253c-4.441,4.508-11.507-2.541-16.744-2.203
			c-6.222,0.403-9.288-0.68-13.559-6.364c-2.472-3.29-5.257-7.623-9.877-6.12c-0.894,2.956,1.655,4.459,1.6,6.955
			c-3.351,0.517-10.06,0.439-12.947-1.597c-4.463-3.147,1.924-6.995-1.101-11.483c-5.403-8.01-18.814-14.068-27.604-12.615
			c-0.811,4.194-4.326,4.593-7.641,3.779c-2.697-0.664-1.61-1.971-4.642-1.14c-1.782,0.488-3.013,2.594-4.864,3.221
			c-1.527,0.521-5.043,0.753-6.381-0.525c-1.48-1.413-0.474-2.528-0.869-4.475c-0.633-3.127,0.379-3.477-2.795-4.19
			c-1.242-0.277-3.085-0.268-3.999,0.758c-2.174,2.439,0.766,8.409-2.451,10.575c-3.083,2.076-7.767-0.187-7.57-4.072
			c0.195-3.868,3.463-4.259,0.277-8.563c-2.042-2.757-5.774-3.237-7.965-5.921c-1.13-1.384-0.829-3.099-2.266-4.479
			c-1.584-1.523-2.783-1.568-4.705-2.056c-2.624-0.668-5.959-1.421-8.547-2.142c-4.125-1.148-15.852-4.593-18.938,0.004
			c-2.301,3.429,0.745,7.492-4.41,9.451c-5.668,2.158-3.174-3.473-5.776-5.831c-2.443-2.215-8.044,0.098-7.126,3.962
			c0.662,2.777,2.797,2.777,2.673,6.275c-0.049,1.405-0.57,2.699-1.114,3.986c-2.983,0.379-9.931-2.581-12.931-3.759
			c-5.55-2.178-3.774-5.37,0.025-7.781c4.561-2.891,5.43-6.185,0.023-8.917c-4.023-2.036-6.806-3.685-6.656-9.459
			c-3.009,0.041-4.457-2.435-7.12-3.563c-2.857-1.213-5.613-0.595-8.639,0.253c-4.084,1.14-10.762,5.582-15.115,2.394
			c-2.875-2.105-1.482-3.722-5.34-4.447c-2.934-0.554-5.81,0.086-8.337,1.042c-3.068,1.16-5.914,3.913-9.361,3.172
			c-2.775-0.595-4.668-3.392-7.256-4.5c-6.533-2.802-10.829,6.079-16.976,3.689c-5.481-2.13-11.487-9.007-15.142-13.804
			c-1.887-2.471-3.665-4.634-7.221-3.229c-3.97,1.564-1.564,5.334-4.617,7.651c-5.446,4.125-11.233-3.555-16.683-2.207
			c-0.299,6.629-2.022,6.112-7.594,6.096c-3.351-0.008-8.755,1.022-9.479-3.982c-2.899-1.34-5.002,2.142-5.593,4.842
			c-4.502,0.704-8.934,0.448-8.364-5.937c-5.984-1.185-8.909,9.158-15.726,5.966c-1.853-0.867-1.732-2.35-3.683-2.993
			c-1.38-0.456-3.237,0.22-4.68,0.016c-4.404-0.623-2.529-1.845-4.64-5.204c-3.506-5.579-11.819-2.651-16.795-2.093
			c-3.51,0.395-7.028,0.232-10.457,0.989c-3.327,0.737-6.56,2.378-9.948,2.35c1.926,2.032,2.734,5.489,0.598,7.867
			c-1.987,2.207-5.428,1.307-8.15,1.307c-3.377,0.004-6.961-0.521-10.043,1.275c-2.93,1.706-3.968,3.547-7.686,2.92
			c-6.639-1.12-9.707-9.508-15.823-10.445c-1.383-0.212-2.989-0.082-4.6,0.317c0,0,0,155.723,0,155.76
			c0-0.485,89.336-2.976,94.426-3.148c32.242-1.075,64.479-2.15,96.719-3.225c15.524-0.517,35.324-4.935,50.433-0.847
			c13.578,3.669,25.782,14.667,39.431,18.967c13.907,4.381,24.961,11.051,36.708,20.156c10.508,8.144,21.196,13.482,33.542,18.144
			c9.176,3.465,18.078,7.521,27.445,9.867h85.042c2.468-1.592,4.784-3.437,6.802-5.717
			C478.388,805.545,480.281,786.452,482.899,775.356z"/>
    </g>
</svg>